<svg width="379" height="326" viewBox="0 0 379 326" fill="none" xmlns="http://www.w3.org/2000/svg">
<g clip-path="url(#clip0_5:134)">
<path opacity="0.18" d="M373.5 205.35C369.607 192.936 363.658 181.264 355.9 170.82C343.39 154 326.61 140.11 317.57 121.2C288.09 59.56 247.94 0.06 172.65 0C102.72 0 81.2 53.7 77.08 61.59C67.08 80.74 68.21 103.67 62.19 124.42C53.8 153.31 32.28 176.11 14.63 200.42C8.37 209.06 2.4 218.36 0.629997 228.88C-0.450003 235.32 0.0999966 241.88 0.699997 248.42C2.17 264.33 9.7 273.57 16.47 287.05C23.0971 300.254 33.7024 311.045 46.79 317.9C70.23 329.99 103.96 325.59 129.16 321.18C159.71 315.84 188.75 303.57 220.29 304.96C239.296 305.831 258.191 308.33 276.77 312.43C289.33 315.21 298.65 321.35 311.92 319.54C339.35 315.79 363.69 293.6 373.06 268.11C380.43 248.06 379.91 225.88 373.5 205.35V205.35Z" fill="#4FC3F7"/>
<path d="M67.8 290.35L67.64 290.51C57.92 300.36 81.55 306.36 87.64 307.37C102.7 309.86 121.16 305.11 136.4 304.14C171.067 301.96 205.817 301.253 240.65 302.02C257.53 302.4 275.22 302.96 290.35 295.45C292.35 294.45 294.42 293.11 294.84 290.96C295.63 286.96 290.31 283.79 291 279.82C294.45 276.31 300.05 276.64 304.88 275.69C309.71 274.74 314.97 270.07 312.7 265.69C311.86 264.06 310.17 263.07 308.54 262.22C290.49 252.78 272.62 249.48 252.26 248.16C206.75 245.23 163.16 250.44 118.16 256.06C91.51 259.39 65.04 254.06 39.25 260.57C32.68 262.24 32.38 271.57 38.81 273.68C46.8386 276.285 55.1336 277.982 63.54 278.74C64.8285 278.86 66.0565 279.343 67.0818 280.133C68.1072 280.922 68.8879 281.986 69.3337 283.201C69.7795 284.416 69.872 285.732 69.6006 286.997C69.3291 288.262 68.7048 289.425 67.8 290.35V290.35Z" fill="url(#paint0_linear_5:134)"/>
<path opacity="0.41" d="M79.43 180.26H117.37V213.31H79.43V180.26Z" fill="#4FC3F7"/>
<path d="M117.07 154.55H155.01V213.3H117.07V154.55Z" fill="#4FC3F7"/>
<path opacity="0.5" d="M154.71 127.42H192.65V213.31H154.71V127.42Z" fill="#4FC3F7"/>
<path d="M192.35 101H230.29V213.3H192.35V101Z" fill="#4FC3F7"/>
<path d="M229.99 74.38H267.93V213.31H229.99V74.38Z" fill="#4FC3F7"/>
<path d="M229.99 74.38H267.93V213.31H229.99V74.38Z" fill="url(#paint1_linear_5:134)"/>
<path d="M85.7 210.14L283.56 193.73L292.34 286.63L94.47 303.04L85.7 210.14V210.14Z" fill="#4FC3F7"/>
<path d="M98.33 220.78L273.08 206.29L279.64 275.68L104.89 290.17L98.33 220.78V220.78Z" fill="url(#paint2_linear_5:134)"/>
<path d="M132.89 299.85L279.65 240.7L261.49 195.56L266.11 195.18L248.91 152.87L223.91 159.72L212.07 168.42L105.94 301.28L132.89 299.85V299.85Z" fill="url(#paint3_linear_5:134)"/>
<path d="M212.016 249.711C212.983 235.03 201.411 222.314 186.167 221.31C170.924 220.305 157.783 231.392 156.816 246.073C155.848 260.754 167.421 273.47 182.664 274.474C197.907 275.479 211.049 264.392 212.016 249.711Z" fill="#4FC3F7"/>
<path d="M183.4 268.51L183.14 263.59C180.429 263.702 177.74 263.073 175.36 261.77L176.36 258.49C178.582 259.734 181.105 260.34 183.65 260.24C187.23 260.08 189.51 258.01 189.37 255.24C189.23 252.47 187.19 251.03 183.37 249.73C178.15 248.03 174.88 245.95 174.66 241.73C174.44 237.73 177.23 234.56 181.81 233.63L181.55 228.72L184.66 228.57L184.9 233.25C187.181 233.177 189.445 233.658 191.5 234.65L190.45 237.95C188.477 236.931 186.267 236.458 184.05 236.58C180.19 236.75 178.86 239.04 178.96 240.97C179.1 243.47 181.02 244.64 185.43 246.19C190.72 247.98 193.43 250.38 193.67 254.67C193.87 258.48 191.3 262.18 186.2 263.23L186.46 268.23L183.4 268.51Z" fill="url(#paint4_linear_5:134)"/>
<path d="M137.039 253.754C137.286 250.001 134.324 246.75 130.422 246.493C126.52 246.236 123.157 249.07 122.909 252.823C122.662 256.575 125.625 259.826 129.526 260.083C133.428 260.34 136.791 257.506 137.039 253.754Z" fill="#4FC3F7"/>
<path d="M247.726 245.311C247.988 241.559 245.039 238.297 241.138 238.024C237.237 237.751 233.862 240.572 233.6 244.324C233.338 248.075 236.287 251.338 240.188 251.611C244.088 251.884 247.463 249.063 247.726 245.311Z" fill="#4FC3F7"/>
<path d="M284.672 207.05C285.078 200.894 280.224 195.563 273.831 195.141C267.439 194.72 261.928 199.369 261.522 205.524C261.116 211.68 265.97 217.012 272.363 217.433C278.755 217.854 284.266 213.206 284.672 207.05Z" fill="#4FC3F7"/>
<path d="M291.233 276.435C291.639 270.28 286.785 264.948 280.393 264.527C274 264.106 268.489 268.754 268.083 274.91C267.678 281.066 272.531 286.397 278.924 286.819C285.317 287.24 290.828 282.591 291.233 276.435Z" fill="#4FC3F7"/>
<path d="M109.9 221.545C110.306 215.39 105.452 210.058 99.0597 209.637C92.667 209.216 87.1559 213.864 86.7503 220.02C86.3447 226.176 91.1981 231.507 97.5908 231.928C103.983 232.35 109.494 227.701 109.9 221.545Z" fill="#4FC3F7"/>
<path d="M116.471 290.92C116.877 284.764 112.023 279.433 105.63 279.012C99.2378 278.59 93.7267 283.239 93.3211 289.395C92.9155 295.55 97.7689 300.882 104.162 301.303C110.554 301.724 116.065 297.076 116.471 290.92Z" fill="#4FC3F7"/>
<path d="M55.03 218.39L240.45 150.51L275.22 237.7L89.8 305.58L55.03 218.39V218.39Z" fill="#4FC3F7"/>
<path d="M70.18 225.32L233.94 165.37L259.92 230.49L96.16 290.44L70.18 225.32V225.32Z" fill="url(#paint5_linear_5:134)"/>
<path d="M188.159 230.601C189.127 215.92 177.554 203.205 162.311 202.2C147.068 201.196 133.926 212.283 132.959 226.964C131.992 241.645 143.564 254.361 158.807 255.365C174.051 256.37 187.192 245.282 188.159 230.601Z" fill="#4FC3F7"/>
<path d="M165.43 248.91L163.79 244.25C161.198 245.067 158.434 245.167 155.79 244.54L155.84 241.1C158.313 241.718 160.908 241.642 163.34 240.88C166.74 239.78 168.34 237.18 167.42 234.57C166.5 231.96 164.16 231.06 160.16 230.82C154.66 230.56 150.93 229.41 149.52 225.43C148.18 221.63 149.96 217.85 154.1 215.74L152.44 211.06L155.39 210.06L156.95 214.5C159.133 213.83 161.446 213.699 163.69 214.12L163.61 217.57C161.436 217.111 159.179 217.239 157.07 217.94C153.41 219.12 152.78 221.67 153.43 223.5C154.27 225.88 156.43 226.5 161.12 226.83C166.71 227.16 170 228.75 171.44 232.83C172.72 236.45 171.3 240.69 166.69 243.05L168.37 247.81L165.43 248.91Z" fill="url(#paint6_linear_5:134)"/>
<path d="M116.854 248.782C117.101 245.029 114.138 241.778 110.237 241.521C106.335 241.264 102.972 244.098 102.724 247.851C102.477 251.604 105.439 254.855 109.341 255.112C113.243 255.369 116.606 252.535 116.854 248.782Z" fill="#4FC3F7"/>
<path d="M220.503 211.888C220.766 208.136 217.816 204.873 213.916 204.6C210.015 204.328 206.64 207.148 206.378 210.9C206.115 214.652 209.065 217.914 212.965 218.187C216.866 218.46 220.241 215.64 220.503 211.888Z" fill="#4FC3F7"/>
<path d="M245.527 166.135C245.932 159.979 241.079 154.647 234.686 154.226C228.294 153.805 222.783 158.454 222.377 164.609C221.971 170.765 226.825 176.096 233.218 176.518C239.61 176.939 245.121 172.29 245.527 166.135Z" fill="#4FC3F7"/>
<path d="M271.514 231.232C271.919 225.076 267.066 219.745 260.673 219.323C254.281 218.902 248.77 223.551 248.364 229.706C247.958 235.862 252.812 241.194 259.204 241.615C265.597 242.036 271.108 237.388 271.514 231.232Z" fill="#4FC3F7"/>
<path d="M81.7589 226.093C82.1645 219.937 77.3111 214.605 70.9184 214.184C64.5258 213.763 59.0147 218.412 58.6091 224.567C58.2035 230.723 63.0569 236.055 69.4495 236.476C75.8422 236.897 81.3532 232.248 81.7589 226.093Z" fill="#4FC3F7"/>
<path d="M107.726 291.189C108.132 285.033 103.278 279.702 96.8856 279.281C90.493 278.859 84.9819 283.508 84.5763 289.664C84.1707 295.819 89.0241 301.151 95.4168 301.572C101.809 301.993 107.32 297.345 107.726 291.189Z" fill="#4FC3F7"/>
<path d="M113.21 148.77C113.152 148.832 113.105 148.903 113.07 148.98C112.885 149.769 112.885 150.591 113.07 151.38C113.316 153.117 113.735 154.826 114.32 156.48C114.362 156.637 114.44 156.781 114.55 156.9C114.679 156.996 114.838 157.042 114.998 157.029C115.158 157.017 115.308 156.946 115.42 156.83C115.632 156.588 115.777 156.295 115.84 155.98C116.062 155.058 116.229 154.123 116.34 153.18C116.51 151.98 118.13 151.3 119.06 150.76C119.138 150.723 119.204 150.664 119.25 150.59C119.25 150.49 119.81 151.76 119.78 151.66C119.553 150.932 119.269 150.223 118.93 149.54C118.93 149.48 118.33 148.03 118.28 148C118.23 147.97 118.07 148 117.98 148.06C117.205 148.427 116.322 148.494 115.5 148.25C115.105 148.139 114.689 148.128 114.289 148.219C113.889 148.31 113.518 148.499 113.21 148.77V148.77Z" fill="#FCAB9A"/>
<path d="M114.51 147.91C113.819 147.743 113.093 147.818 112.45 148.12C112.241 148.206 112.066 148.357 111.95 148.55C111.873 148.744 111.846 148.953 111.87 149.16C111.915 151.842 112.35 154.503 113.16 157.06C113.253 157.392 113.405 157.703 113.61 157.98C113.714 158.12 113.852 158.231 114.012 158.301C114.171 158.371 114.347 158.398 114.52 158.38C114.76 158.338 114.982 158.227 115.16 158.06C115.485 157.776 115.749 157.43 115.938 157.043C116.127 156.655 116.236 156.233 116.259 155.803C116.283 155.372 116.22 154.941 116.074 154.535C115.928 154.13 115.702 153.757 115.41 153.44C115.177 153.231 114.969 152.996 114.79 152.74C114.646 152.479 114.552 152.195 114.51 151.9C114.36 151.152 114.27 150.393 114.24 149.63C114.298 149.052 114.389 148.478 114.51 147.91V147.91ZM135.37 134.85C134.835 136.457 134.166 138.016 133.37 139.51C131.59 142.51 128.8 144.83 125.99 146.94C124.465 148.088 122.915 149.202 121.34 150.28C120.52 150.728 119.663 151.106 118.78 151.41C118.696 151.461 118.598 151.485 118.5 151.48C118.423 151.456 118.353 151.411 118.3 151.35C117.08 150.26 116.22 148.85 117.56 147.76C118.916 146.726 120.154 145.546 121.25 144.24C123.41 141.52 125.25 138.41 128.11 136.37C128.429 136.216 128.683 135.953 128.826 135.629C128.969 135.304 128.992 134.94 128.89 134.6C128.61 130.6 128.467 126.577 128.46 122.53C128.381 121.426 128.552 120.319 128.96 119.29C130.19 116.74 134.64 116.42 137.04 116.65C137.604 116.654 138.155 116.817 138.63 117.12C141.38 119.29 140.15 122 139.17 124.64L135.37 134.85Z" fill="#473F47"/>
<path d="M148.61 102.61C149.13 103.07 157.04 105.61 158.06 105.33C159.27 105.02 162.42 96.17 163.36 92.94C163.397 92.8531 163.416 92.7595 163.416 92.665C163.416 92.5705 163.397 92.4769 163.36 92.39C163.316 92.316 163.254 92.2542 163.18 92.21C161.24 90.96 160.08 93.9 159.61 95.21C158.864 97.2334 157.856 99.1498 156.61 100.91C154.61 101.07 149.8 99.14 149.22 99.12C148.91 99.1105 148.603 99.1866 148.333 99.3401C148.063 99.4936 147.841 99.7184 147.69 99.99C147.24 100.95 147.91 101.96 148.61 102.61Z" fill="#FCAB9A"/>
<path d="M149.47 97.75C149.71 97.91 149.95 98.06 150.2 98.2C150.309 98.2428 150.398 98.3249 150.45 98.43C150.475 98.5149 150.475 98.6051 150.45 98.69L149.98 100.83C149.836 101.786 149.496 102.702 148.98 103.52C148.69 103.91 146.57 102.52 146.27 102.29C145.39 101.708 144.621 100.973 144 100.12C143.712 99.7519 143.492 99.3354 143.35 98.89C143.148 97.8073 143.313 96.688 143.82 95.71C144.65 94.1 146.03 94.89 147.09 95.88C147.82 96.5796 148.617 97.206 149.47 97.75V97.75Z" fill="#4FC3F7"/>
<path d="M137.25 153.2C137.296 153.261 137.349 153.314 137.41 153.36C138.097 153.685 138.85 153.849 139.61 153.84C141.242 153.942 142.881 153.878 144.5 153.65C144.655 153.641 144.805 153.597 144.94 153.52C145.05 153.42 145.119 153.284 145.136 153.137C145.152 152.99 145.115 152.842 145.03 152.72C144.851 152.476 144.609 152.286 144.33 152.17C143.528 151.787 142.703 151.453 141.86 151.17C141.49 151.03 141.17 150.97 141.17 150.5C141.176 150.28 141.223 150.063 141.31 149.86L141.57 149.1C141.66 148.83 141.75 148.5 141.57 148.29C141.447 148.181 141.293 148.115 141.13 148.1C140.39 147.95 139.635 147.88 138.88 147.89C138.806 147.881 138.732 147.899 138.67 147.94C138.628 147.978 138.597 148.026 138.58 148.08C138.05 149.31 136.26 151.93 137.25 153.2V153.2Z" fill="#FCAB9A"/>
<path d="M130.79 113.81C130.79 113.81 126.79 119.41 130.9 124.39C133.77 127.85 138.06 130.2 142.01 132.18C142.7 132.53 143.52 132.82 144.19 133.24C145.5 134.05 144.69 134.75 144 135.85C142.27 138.65 140.51 141.42 138.74 144.19C137.708 145.578 137.003 147.181 136.68 148.88L141.16 150.23C143.562 146.12 146.301 142.216 149.35 138.56C150.67 136.98 152.35 135.05 152.14 132.85C151.833 130.824 150.94 128.933 149.57 127.41L141.16 117.67L130.79 113.81Z" fill="#473F47"/>
<path d="M150.26 87.06C150.4 87.48 150.8 87.8 150.86 88.25C150.92 88.7 150.47 89.25 150.18 89.68C149.78 90.31 149.68 91.1 149.28 91.74C149.209 91.8823 149.098 92.0005 148.96 92.08C148.827 92.1202 148.689 92.1404 148.55 92.14C148.017 92.1284 147.488 92.0408 146.98 91.88C146.891 91.8229 146.785 91.7982 146.68 91.81C146.591 91.864 146.521 91.9444 146.48 92.04C145.885 93.2869 145.6 94.6593 145.65 96.04C145.65 96.48 145.65 97.04 145.29 97.27C145.154 97.3508 144.998 97.3891 144.84 97.38C143.84 97.38 143.01 96.46 142.51 95.54C142.076 94.7157 141.74 93.843 141.51 92.94C141.43 92.6779 141.4 92.4032 141.42 92.13C141.469 91.808 141.582 91.4988 141.75 91.22C142.27 90.2002 142.689 89.1318 143 88.03C143.272 86.5916 143.768 85.2047 144.47 83.92C144.731 83.5013 145.12 83.1785 145.58 83C146.103 82.8784 146.648 82.8991 147.16 83.06C148.221 83.2291 149.176 83.7981 149.83 84.65C150 84.97 150.09 86.54 150.26 87.06V87.06Z" fill="#FCAB9A"/>
<path d="M140 118.4C139.104 118.549 138.186 118.501 137.31 118.26C136.024 117.997 134.707 117.922 133.4 118.04C132.623 118.223 131.863 118.474 131.13 118.79C129.67 119.22 127.02 118.86 127.05 116.93C127.16 110.93 129.48 105.22 132.05 99.8C133.14 97.47 134.39 95.05 136.57 93.7C137.336 93.2145 138.198 92.9003 139.096 92.7789C139.995 92.6576 140.909 92.732 141.776 92.9969C142.643 93.2619 143.443 93.7113 144.12 94.3142C144.797 94.9171 145.336 95.6593 145.7 96.49C146.294 97.8921 146.632 99.3889 146.7 100.91C146.87 102.81 146.9 104.91 145.84 106.46C145.339 107.118 144.787 107.737 144.19 108.31C142.76 109.859 141.803 111.785 141.43 113.86C141.1 115.46 142.46 117.9 140 118.4V118.4Z" fill="#4FC3F7"/>
<path d="M149.77 83.98C149.05 85.13 147.84 84.66 146.85 85.13C145.86 85.6 145.85 87.04 144.85 87.7C144.43 88.01 143.91 88.23 143.66 88.7C143.492 89.1044 143.434 89.5458 143.49 89.98C143.525 90.6229 143.525 91.2671 143.49 91.91C143.491 92.4851 143.317 93.0469 142.99 93.52C142.26 94.37 140.92 94.14 139.8 94.25C137.61 94.47 136.87 96.54 135.42 97.94C134.71 98.63 133.92 99.23 133.27 99.94C132.289 101.14 131.509 102.491 130.96 103.94C130.527 105.081 129.952 106.162 129.25 107.16C128.9 107.659 128.455 108.084 127.94 108.41C127.425 108.737 126.851 108.957 126.25 109.06C125.68 109.105 125.106 109.032 124.566 108.844C124.025 108.656 123.53 108.359 123.11 107.97C122.378 107.298 121.856 106.429 121.606 105.468C121.356 104.506 121.388 103.493 121.7 102.55C121.867 102.245 121.913 101.888 121.83 101.55C121.734 101.368 121.601 101.208 121.44 101.08C120.716 100.334 120.311 99.3347 120.311 98.295C120.311 97.2552 120.716 96.2563 121.44 95.51C122.23 94.76 124.12 94.05 124.22 92.82C124.32 91.59 123.22 90.39 123.69 88.98C123.849 88.549 124.082 88.1495 124.38 87.8C124.943 86.9525 125.714 86.2638 126.62 85.8C127.526 85.4848 128.481 85.3292 129.44 85.34C132.52 85.12 135.74 84.18 137.77 81.84C138.23 81.2334 138.735 80.6618 139.28 80.13C139.918 79.6374 140.645 79.2709 141.42 79.05C143.287 78.3418 145.342 78.31 147.23 78.96C147.884 79.237 148.467 79.6577 148.936 80.1909C149.405 80.7241 149.749 81.3561 149.94 82.04C150.056 82.356 150.101 82.6936 150.072 83.029C150.042 83.3643 149.939 83.689 149.77 83.98V83.98Z" fill="#FC682D"/>
<path d="M149.42 89.12C149.03 89.12 148.42 89.12 148.07 89.01C147.95 89.25 148.53 90.14 148.66 90.25C148.721 90.3041 148.799 90.334 148.88 90.334C148.961 90.334 149.04 90.3041 149.1 90.25C149.162 90.1805 149.201 90.0929 149.21 90L149.42 89.11" fill="white"/>
<path d="M148.36 87.14C148.559 87.14 148.72 86.9788 148.72 86.78C148.72 86.5812 148.559 86.42 148.36 86.42C148.161 86.42 148 86.5812 148 86.78C148 86.9788 148.161 87.14 148.36 87.14Z" fill="#231F20"/>
<path d="M160.9 90.06C160.602 90.086 160.317 90.1929 160.076 90.3691C159.834 90.5454 159.646 90.7842 159.53 91.06C159.436 91.4291 159.457 91.8179 159.589 92.175C159.721 92.5322 159.959 92.8408 160.27 93.06C160.901 93.4827 161.625 93.7468 162.38 93.83C162.488 93.8638 162.603 93.8732 162.715 93.8577C162.827 93.8421 162.935 93.8019 163.03 93.74C163.128 93.6302 163.194 93.4951 163.22 93.35C163.401 92.8371 163.476 92.2927 163.44 91.75C163.275 91.2195 162.932 90.762 162.47 90.4543C162.007 90.1466 161.453 90.0073 160.9 90.06V90.06Z" fill="#FCAB9A"/>
<path d="M136.7 151.84C136.419 152.439 136.352 153.117 136.51 153.76C136.551 153.967 136.656 154.156 136.81 154.3C136.972 154.407 137.157 154.476 137.35 154.5C139.826 154.959 142.355 155.06 144.86 154.8C145.182 154.777 145.497 154.696 145.79 154.56C145.935 154.487 146.06 154.379 146.154 154.247C146.248 154.114 146.309 153.961 146.33 153.8C146.33 153.58 146.268 153.365 146.15 153.18C145.955 152.825 145.69 152.512 145.371 152.262C145.052 152.012 144.686 151.829 144.294 151.724C143.903 151.62 143.494 151.596 143.093 151.653C142.692 151.711 142.306 151.849 141.96 152.06C141.724 152.229 141.473 152.377 141.21 152.5C140.944 152.575 140.666 152.605 140.39 152.59C139.673 152.595 138.956 152.535 138.25 152.41C137.722 152.251 137.205 152.061 136.7 151.84V151.84Z" fill="#473F47"/>
<path d="M132.16 97.31C131.3 97.31 131.16 95.93 130.47 96.47C128.463 98.0276 126.599 99.7612 124.9 101.65C123.72 103.01 119.81 109.79 119.01 110.88C117.759 112.341 116.82 114.043 116.25 115.88C116.079 116.407 116.1 116.977 116.31 117.49C117.31 119.49 120.54 115.66 121.12 114.72C121.56 115.04 122.22 115.32 122.58 114.91C123.08 114.35 122.32 113.51 122.08 112.99C121.795 112.298 121.774 111.526 122.02 110.82C122.342 109.98 122.816 109.207 123.42 108.54C126.086 105.311 129.396 102.675 133.14 100.8C133.68 100.53 134.29 100.21 134.45 99.63C134.517 99.343 134.493 99.0423 134.38 98.77C134.208 98.326 133.901 97.9468 133.503 97.6851C133.105 97.4234 132.636 97.2923 132.16 97.31V97.31Z" fill="#FCAB9A"/>
<path d="M141.16 98.11C141.16 98.11 131.16 102.86 130.58 103.37C130 103.88 127.02 97.84 127.02 97.84C127.02 97.84 136.88 92.02 140.02 92.38C143.16 92.74 144.28 96.13 141.16 98.11V98.11Z" fill="#4FC3F7"/>
<path d="M248.96 74.37C258.211 74.37 265.71 66.8708 265.71 57.62C265.71 48.3692 258.211 40.87 248.96 40.87C239.709 40.87 232.21 48.3692 232.21 57.62C232.21 66.8708 239.709 74.37 248.96 74.37Z" fill="#F8C244"/>
<path d="M248.96 71.9C256.847 71.9 263.24 65.5067 263.24 57.62C263.24 49.7334 256.847 43.34 248.96 43.34C241.073 43.34 234.68 49.7334 234.68 57.62C234.68 65.5067 241.073 71.9 248.96 71.9Z" fill="#E8A825"/>
<path d="M250.01 66.65L249.42 64.43C248.237 64.7472 246.989 64.7229 245.82 64.36L245.95 62.76C247.044 63.1167 248.217 63.1514 249.33 62.86C250.9 62.45 251.71 61.27 251.38 60.03C251.05 58.79 250.01 58.3 248.21 58.03C245.74 57.75 244.09 57.11 243.59 55.21C243.365 54.3118 243.484 53.3622 243.922 52.5466C244.36 51.7311 245.087 51.1083 245.96 50.8L245.37 48.59L246.73 48.23L247.29 50.35C248.291 50.0952 249.339 50.0952 250.34 50.35L250.16 52.06C249.196 51.7851 248.174 51.7851 247.21 52.06C245.52 52.51 245.16 53.68 245.39 54.56C245.69 55.7 246.65 56.05 248.76 56.33C251.27 56.65 252.71 57.49 253.23 59.43C253.447 60.3661 253.32 61.3492 252.872 62.1994C252.424 63.0496 251.685 63.7101 250.79 64.06L251.4 66.34L250.01 66.65Z" fill="#F8C244"/>
</g>
<defs>
<linearGradient id="paint0_linear_5:134" x1="173.41" y1="146.15" x2="174.21" y2="464.45" gradientUnits="userSpaceOnUse">
<stop offset="0.01"/>
<stop offset="0.08" stop-opacity="0.69"/>
<stop offset="0.21" stop-opacity="0.32"/>
<stop offset="1" stop-opacity="0"/>
</linearGradient>
<linearGradient id="paint1_linear_5:134" x1="6061.37" y1="10678.9" x2="24786" y2="14302.9" gradientUnits="userSpaceOnUse">
<stop offset="0.01"/>
<stop offset="0.08" stop-opacity="0.69"/>
<stop offset="0.21" stop-opacity="0.32"/>
<stop offset="1" stop-opacity="0"/>
</linearGradient>
<linearGradient id="paint2_linear_5:134" x1="166.452" y1="58.0387" x2="210.734" y2="617.491" gradientUnits="userSpaceOnUse">
<stop offset="0.01"/>
<stop offset="0.13" stop-opacity="0.69"/>
<stop offset="0.25" stop-opacity="0.32"/>
<stop offset="1" stop-opacity="0"/>
</linearGradient>
<linearGradient id="paint3_linear_5:134" x1="26690.5" y1="22865.5" x2="39904.8" y2="67495.2" gradientUnits="userSpaceOnUse">
<stop offset="0.01"/>
<stop offset="0.08" stop-opacity="0.69"/>
<stop offset="0.21" stop-opacity="0.32"/>
<stop offset="1" stop-opacity="0"/>
</linearGradient>
<linearGradient id="paint4_linear_5:134" x1="-25188.3" y1="-115426" x2="-12807.8" y2="-103818" gradientUnits="userSpaceOnUse">
<stop offset="0.01"/>
<stop offset="0.13" stop-opacity="0.69"/>
<stop offset="0.25" stop-opacity="0.32"/>
<stop offset="1" stop-opacity="0"/>
</linearGradient>
<linearGradient id="paint5_linear_5:134" x1="-218431" y1="-365111" x2="-193589" y2="-299691" gradientUnits="userSpaceOnUse">
<stop offset="0.01"/>
<stop offset="0.13" stop-opacity="0.69"/>
<stop offset="0.25" stop-opacity="0.32"/>
<stop offset="1" stop-opacity="0"/>
</linearGradient>
<linearGradient id="paint6_linear_5:134" x1="-53447.3" y1="-113139" x2="-38327.1" y2="-103349" gradientUnits="userSpaceOnUse">
<stop offset="0.01"/>
<stop offset="0.13" stop-opacity="0.69"/>
<stop offset="0.25" stop-opacity="0.32"/>
<stop offset="1" stop-opacity="0"/>
</linearGradient>
<clipPath id="clip0_5:134">
<rect width="378.44" height="325.79" fill="white"/>
</clipPath>
</defs>
</svg>
