<svg width="375" height="307" viewBox="0 0 375 307" fill="none" xmlns="http://www.w3.org/2000/svg">
<g clip-path="url(#clip0_5:29)">
<path opacity="0.18" d="M170.52 0.319997C133.511 2.31203 97.6129 13.6667 66.19 33.32C51.52 42.62 37.63 53.94 28.52 68.75C19.41 83.56 15.64 102.32 21.52 118.66C25.03 128.37 31.63 136.61 36.34 145.79C41.05 154.97 43.76 166.27 39.07 175.46C33.69 186.1 20.71 190.01 11.52 197.67C-3.07 209.81 -1.41 220.77 3.52 236.61C7.79 250.45 14.65 262.43 25.78 271.89C47.52 290.37 77.62 296.08 104.95 300.62C144.55 307.2 185.15 308.92 225.01 303.62C244.52 301.04 262.73 295.62 281.64 290.85C300.12 286.22 318.74 280.44 334.5 269.4C353.258 256.259 366.521 236.673 371.759 214.378C376.997 192.082 373.844 168.639 362.9 148.52C347.14 119.52 317.24 100.82 299.07 73.31C288.39 57.15 281.96 38.24 269.52 23.43C258.09 10.01 227.93 4.73 211.58 2.19C203.383 0.935924 195.111 0.224377 186.82 0.0599969C181.39 -0.0600031 175.95 0.00999689 170.52 0.319997V0.319997Z" fill="#4FC3F7"/>
<path d="M62.32 226.7C65.9 229.28 69.49 231.86 73.26 234.15C80.09 238.3 87.45 241.49 94.78 244.66C96.92 245.58 99.07 246.51 101.22 247.4C102.598 248.068 104.092 248.462 105.62 248.56C108.97 248.56 111.62 245.94 114.62 244.36C117.23 242.97 120.19 242.36 122.83 241.06C123.83 240.58 124.83 239.78 124.74 238.71C124.65 237.64 123.74 237.13 122.87 236.71C115.26 232.71 106.97 230.06 98.74 227.49C97.4318 226.978 96.0343 226.733 94.63 226.77C92 227.01 89.95 229.1 87.46 229.98C85.797 230.487 84.0509 230.664 82.32 230.5C75.44 230.13 69.15 226.77 62.32 226.7V226.7Z" fill="url(#paint0_linear_5:29)"/>
<path d="M204.6 245.51L204.03 245.59C203.61 245.92 204.78 246.01 204.6 245.51Z" fill="url(#paint1_linear_5:29)"/>
<path d="M77.38 179.11C81.65 180.82 86.14 182.48 88.91 184.44L154.52 230.51C159.545 234.149 164.781 237.488 170.2 240.51C174.62 242.9 177.14 247.51 182.5 248.67C185.152 249.129 187.866 249.081 190.5 248.53C194.813 247.829 199.055 246.752 203.18 245.31C203.69 245.14 204.4 245.03 204.63 245.52C242.84 240.3 279.38 226.43 317.26 219.21C317.712 219.135 318.127 218.913 318.44 218.579C318.753 218.244 318.946 217.816 318.991 217.36C319.035 216.904 318.928 216.446 318.685 216.057C318.443 215.668 318.079 215.371 317.65 215.21C314.476 214.092 311.201 213.288 307.87 212.81C301.87 211.69 295.8 210.6 289.74 209.61C277.524 207.5 265.191 206.131 252.81 205.51C232.25 204.68 211.51 206.84 191.18 203.65C171.86 200.65 153.64 192.9 135.66 185.19C131.33 183.33 126.91 181.4 123.51 178.19C120.85 175.64 118.71 172.25 115.31 170.57C111.91 168.89 107.53 169.13 103.71 169.31C96.1858 169.819 88.703 170.821 81.31 172.31C79.91 174.51 78.61 176.8 77.38 179.11V179.11Z" fill="url(#paint2_linear_5:29)"/>
<path d="M315.52 206.27L229.7 168.94C227.847 168.008 225.755 167.66 223.7 167.94L117.52 177.01C115.52 177.3 115.85 186.01 117.52 187.43L180.21 240.79C182.094 242.45 184.348 243.636 186.783 244.248C189.218 244.861 191.765 244.882 194.21 244.31L314.78 215.01C316.31 214.59 316.97 207.01 315.52 206.27V206.27Z" fill="#4FC3F7"/>
<path d="M315.52 206.27L229.7 168.94C227.847 168.008 225.755 167.66 223.7 167.94L117.52 177.01C115.52 177.3 115.85 186.01 117.52 187.43L180.21 240.79C182.094 242.45 184.348 243.636 186.783 244.248C189.218 244.861 191.765 244.882 194.21 244.31L314.78 215.01C316.31 214.59 316.97 207.01 315.52 206.27Z" fill="url(#paint3_linear_5:29)"/>
<path d="M117.52 181.19L180.2 234.55C182.083 236.211 184.337 237.397 186.773 238.008C189.209 238.619 191.756 238.637 194.2 238.06L314.72 208.77C315.208 208.563 315.593 208.171 315.792 207.679C315.991 207.188 315.986 206.638 315.78 206.15C315.623 205.781 315.358 205.467 315.02 205.25L281.97 186.6L273.3 181.73L246.91 166.84C245.057 165.908 242.965 165.56 240.91 165.84L118.61 176.49C116.57 176.78 115.9 179.79 117.52 181.19V181.19Z" fill="#4FC3F7"/>
<path d="M240.96 168.79L129.12 185.34L163.55 213.28L278.32 190.06L240.96 168.79V168.79Z" fill="url(#paint4_linear_5:29)"/>
<path d="M252.66 197L206.57 206.31L230.4 225.75L278.32 215L252.66 197Z" fill="url(#paint5_linear_5:29)"/>
<path d="M275.7 218.37C275.231 219.319 274.565 220.158 273.746 220.829C272.926 221.499 271.973 221.988 270.95 222.26C267.57 223.07 247.83 228.12 247.83 228.12C247.83 228.12 244.62 228.51 242.83 226.36L275.7 218.37Z" fill="url(#paint6_linear_5:29)"/>
<path d="M244.46 165.84L118.25 183.84C117.325 183.968 116.385 183.738 115.623 183.197C114.862 182.657 114.335 181.846 114.15 180.93L96.15 90.01C95.7749 88.192 96.1372 86.2994 97.1574 84.7485C98.1776 83.1976 99.772 82.1154 101.59 81.74C101.87 81.6805 102.154 81.6404 102.44 81.62L227.08 70.62C228.918 70.4468 230.749 71.0063 232.176 72.1768C233.603 73.3473 234.51 75.0341 234.7 76.87L244.46 165.84Z" fill="#4FC3F7"/>
<path d="M244.46 165.84L118.58 183.75C117.564 183.898 116.53 183.649 115.692 183.055C114.855 182.461 114.277 181.568 114.08 180.56L96.14 90.01C95.7649 88.192 96.1272 86.2994 97.1474 84.7485C98.1676 83.1976 99.762 82.1154 101.58 81.74C101.86 81.6805 102.144 81.6404 102.43 81.62L227.08 70.62C228.918 70.4468 230.749 71.0063 232.176 72.1768C233.603 73.3473 234.51 75.0341 234.7 76.87L244.46 165.84Z" fill="url(#paint7_linear_5:29)"/>
<path d="M120.52 178.57L102.6 86.83L230.04 77.97L240.15 164.82L120.52 178.57V178.57Z" fill="white"/>
<path d="M298.33 141.9C298.33 150.769 294.807 159.274 288.536 165.546C282.264 171.817 273.759 175.34 264.89 175.34C256.021 175.34 247.516 171.817 241.244 165.546C234.973 159.274 231.45 150.769 231.45 141.9C231.433 141.049 231.466 140.197 231.55 139.35C232.218 130.734 236.195 122.711 242.649 116.963C249.102 111.215 257.53 108.189 266.166 108.518C274.802 108.848 282.974 112.508 288.971 118.732C294.967 124.955 298.321 133.258 298.33 141.9V141.9Z" fill="#4FC3F7"/>
<path opacity="0.14" d="M250.83 157.09C249.73 161.92 251.08 167.09 250.09 171.89C242.368 168.067 236.411 161.422 233.45 153.33C233.288 151.664 233.332 149.985 233.58 148.33C233.956 146.572 233.973 144.755 233.63 142.99C233.152 141.663 232.448 140.428 231.55 139.34C231.924 134.447 233.373 129.697 235.793 125.427C238.213 121.158 241.544 117.475 245.55 114.64C245.59 114.865 245.59 115.095 245.55 115.32L244.12 121.69C244.4 123.576 244.4 125.494 244.12 127.38C243.965 128.321 243.608 129.217 243.073 130.006C242.537 130.795 241.837 131.458 241.02 131.95C240.399 132.202 239.797 132.5 239.22 132.84C238.67 133.295 238.209 133.847 237.86 134.47C236.948 135.761 236.271 137.203 235.86 138.73C235.657 139.495 235.647 140.299 235.832 141.069C236.017 141.839 236.391 142.551 236.92 143.14L246.24 141.33C247.24 141.14 248.4 141.01 249.07 141.75C249.74 142.49 249.37 144.02 249.55 145.2C249.77 146.71 251.11 147.79 251.73 149.2C252.76 151.67 251.45 154.45 250.83 157.09V157.09ZM298.33 141.9C298.336 146.958 297.193 151.951 294.985 156.502C292.778 161.053 289.566 165.043 285.59 168.17C285.132 167.862 284.738 167.468 284.43 167.01C283.925 166.261 283.739 165.341 283.911 164.455C284.084 163.568 284.601 162.786 285.35 162.28C284.79 162.57 282.58 161.85 281.92 161.74L278.48 161.21C276.83 160.96 273.95 161.06 272.99 159.4C272.882 159.171 272.751 158.953 272.6 158.75C272.401 158.538 272.159 158.371 271.89 158.26C270.89 157.75 269.64 157.18 269.39 156.05C269.22 155.23 269.63 154.29 269.21 153.55C269.07 153.33 268.87 153.15 268.74 152.92C268.593 152.58 268.538 152.208 268.578 151.84C268.618 151.472 268.753 151.12 268.97 150.82C270.42 148.28 273.43 147.06 276.31 146.57C279.19 146.08 282.17 146.16 284.98 145.34C286.701 144.671 288.469 144.129 290.27 143.72C291.27 143.58 292.53 143.48 292.9 142.53C293.11 142 292.9 141.37 293.12 140.83C293.2 140.6 293.35 140.39 293.44 140.16C293.55 139.813 293.518 139.436 293.352 139.111C293.185 138.787 292.897 138.542 292.55 138.43C292.466 138.401 292.379 138.38 292.29 138.37C292.52 137.74 292.71 136.94 292.22 136.49C292.047 136.362 291.846 136.278 291.633 136.245C291.421 136.212 291.204 136.231 291 136.3C289.8 136.61 288.93 137.62 287.92 138.3C284.58 140.67 280.01 139.83 277.22 137.04C276.765 136.642 276.441 136.116 276.29 135.53C276.252 135.033 276.367 134.535 276.621 134.106C276.876 133.677 277.256 133.336 277.71 133.13C278.622 132.737 279.607 132.543 280.6 132.56L279.5 125.31C273.94 126.8 271.68 121.51 270.89 117.11C270.1 112.71 273.22 111.11 277.25 110.84C283.467 113.316 288.798 117.599 292.556 123.135C296.314 128.672 298.325 135.208 298.33 141.9V141.9Z" fill="#020202"/>
<path d="M138.21 144.43C139.21 153.43 139.27 162.54 140.88 171.43C141.25 173.43 141.88 175.71 143.66 176.72C145.083 177.34 146.67 177.48 148.18 177.12C157.688 175.815 166.94 173.056 175.61 168.94C173.094 157.009 169.378 145.364 164.52 134.18C163.25 131.28 161.86 128.34 159.6 126.12C156.17 122.76 151.42 121.7 146.86 120.8C144.49 120.33 142.08 120.01 139.73 119.41C138.28 119.04 134.16 116.62 132.96 116.85C128.96 117.6 132.96 123.92 133.96 126.37C136.22 132.16 137.651 138.24 138.21 144.43V144.43Z" fill="url(#paint8_linear_5:29)"/>
<path d="M222.05 114.03L126.74 123.06L124.31 111.92L219.63 102.88L222.05 114.03V114.03Z" fill="#4FC3F7"/>
<path d="M222.05 114.03L126.74 123.06L124.31 111.92L219.63 102.88L222.05 114.03V114.03Z" fill="url(#paint9_linear_5:29)"/>
<path d="M211.77 107.5C219.13 106.71 226.26 111.4 230.2 117.66C234.14 123.92 235.2 126.95 235.7 134.33C235.86 136.73 236.06 139.39 237.83 141.02C240.78 143.73 245.39 141.62 249.25 140.56C258.4 138.04 269.03 143.4 272.45 152.26C275.79 160.91 271.01 173.75 278.61 179.07C285.38 183.79 303.61 172.4 309.32 162.15C309.32 162.15 310.98 184.66 293.21 195.91C266.84 212.61 217.41 219.1 212.21 218.54C203.56 217.59 194.12 214.59 189.98 206.94C185.84 199.29 188.52 189.67 188.52 180.84C188.52 175.76 186.23 169.4 181.15 169.29C177.35 169.2 174.6 172.82 172.83 176.18C171.06 179.54 169.21 183.41 165.6 184.61C162.38 185.68 158.72 184.09 156.51 181.52C154.3 178.95 153.29 175.52 152.61 172.23C150.26 160.69 151.33 148.7 149.44 137.07C148.72 132.65 147.44 128.12 144.44 124.81C141.44 121.5 134.39 116.6 129.01 116.81L211.77 107.5Z" fill="#4FC3F7"/>
<path d="M211.77 107.5C219.13 106.71 226.26 111.4 230.2 117.66C234.14 123.92 235.2 126.95 235.7 134.33C235.86 136.73 236.06 139.39 237.83 141.02C240.78 143.73 245.39 141.62 249.25 140.56C258.4 138.04 269.03 143.4 272.45 152.26C275.23 159.46 273.57 167.54 276.26 174.75C277.82 178.95 280.33 179.45 284.7 179.14C288.96 178.733 293.038 177.208 296.52 174.72C301.75 171.11 305.77 166.04 309.71 161.05C308.78 167.2 308.94 173.59 306.85 179.44C303.4 189.12 294.45 195.68 285.52 200.77C270.332 209.41 253.861 215.568 236.73 219.01C228.73 220.63 220.35 219.38 212.25 218.5C203.6 217.5 194.16 214.5 190.02 206.9C185.88 199.3 188.57 189.63 188.6 180.8C188.6 175.72 186.31 169.36 181.23 169.25C177.43 169.16 174.68 172.78 172.91 176.14C171.14 179.5 169.29 183.37 165.68 184.57C162.46 185.64 158.8 184.05 156.59 181.48C154.38 178.91 153.37 175.48 152.69 172.19C150.34 160.65 151.41 148.66 149.52 137.03C148.8 132.61 147.52 128.03 144.52 124.77C141.52 121.51 134.47 116.56 129.09 116.77L211.77 107.5Z" fill="url(#paint10_linear_5:29)"/>
<path d="M242.84 142.25L180.69 165.75C180.69 165.75 177.26 166.58 172.91 176.18C168.56 185.78 153.05 189.18 152.26 158.54C151.47 127.9 149.85 129.84 145.96 123.48L235.52 132.34C235.52 132.34 234.93 144.5 242.84 142.25V142.25Z" fill="url(#paint11_linear_5:29)"/>
<path d="M209.99 174.84L220.8 170.82M165.55 121.84L212.51 116.83L165.55 121.84ZM170.92 136.88L217.88 131.87L170.92 136.88ZM173.18 146.91L220.15 141.9L173.18 146.91ZM205.77 125.67L214.89 124.7L205.77 125.67ZM187.52 127.62L199.88 126.3L187.52 127.62ZM167.92 129.71L178.96 128.53L167.92 129.71ZM208.46 166.91L254.44 149.84L208.46 166.91ZM212.19 181.86L258.17 164.79L212.19 181.86ZM213.4 192.16L259.39 175.09L213.4 192.16ZM247.05 161.08L255.97 157.77L247.05 161.08ZM229.18 167.71L241.28 163.22L229.18 167.71Z" stroke="#473F47" stroke-width="2" stroke-linecap="round" stroke-linejoin="round"/>
<path opacity="0.45" d="M305 167.84C305 167.84 262 206.22 233 202.13C233 202.13 209.17 229.04 199.83 213.29C190.49 197.54 206.52 187.4 206.52 187.4L276.21 174.75C276.21 174.75 280.83 190.3 305 167.84V167.84Z" fill="url(#paint12_linear_5:29)"/>
<path d="M93.95 231.36C94.04 232.52 95.69 232.54 97.56 232.36C99.43 232.18 98.93 232.62 101.56 232.65C104.19 232.68 105.09 231.82 105.22 231.45C105.35 231.08 104.07 230.84 102.72 230.51L102.2 230.38C100.68 229.99 99.67 228.85 98.37 227.86C97.07 226.87 95.55 223.5 95.55 223.5L91.96 223.34C91.96 223.34 93.47 226.4 94.04 227.72C94.2701 228.524 94.2701 229.376 94.04 230.18C93.9601 230.568 93.9298 230.964 93.95 231.36V231.36Z" fill="#FFB27D"/>
<path d="M97.52 232.32C99.39 232.1 98.89 232.58 101.52 232.61C104.15 232.64 105.05 231.78 105.18 231.41C105.31 231.04 104.03 230.8 102.68 230.47C101.482 231.041 100.152 231.279 98.83 231.16C97.07 230.98 95.28 230.25 94.07 230.16C93.9719 230.559 93.9282 230.969 93.94 231.38C94.04 232.52 95.69 232.54 97.52 232.32Z" fill="#473F47"/>
<path d="M70.1 230.18L70.49 230.38C72.0995 231.093 73.7739 231.649 75.49 232.04C76.0514 232.203 76.6406 232.247 77.22 232.17C77.5818 232.099 77.9234 231.949 78.22 231.73C78.36 231.62 78.5 231.45 78.42 231.3C78.3941 231.243 78.3525 231.194 78.3 231.16C77.54 230.55 76.59 230.36 75.79 229.81C74.99 229.26 74.35 228.63 73.61 228.07C72.37 227.12 73.61 221.53 73.61 221.53L69.68 221.15C69.68 221.15 69.86 225.86 69.86 227.99C69.86 228.63 69.32 229.49 69.86 229.99C69.9283 230.067 70.0095 230.131 70.1 230.18V230.18Z" fill="#FFB27D"/>
<path d="M72.85 232.52C73.5637 232.843 74.2987 233.117 75.05 233.34C75.7774 233.592 76.5402 233.727 77.31 233.74C78.0876 233.762 78.8483 233.511 79.46 233.03C79.5423 232.975 79.6117 232.902 79.6634 232.818C79.7152 232.733 79.7481 232.638 79.76 232.54C79.7479 232.367 79.6814 232.203 79.57 232.07C79.2069 231.556 78.7315 231.132 78.18 230.83C77.89 230.69 77.72 230.83 77.44 230.98C77.1164 231.11 76.7817 231.21 76.44 231.28C75.2651 231.521 74.049 231.471 72.8983 231.132C71.7476 230.794 70.6974 230.179 69.84 229.34C69.84 229.34 69.77 229.25 69.72 229.24C69.67 229.23 69.52 229.34 69.5 229.46C69.4547 229.647 69.4492 229.842 69.4836 230.031C69.5181 230.221 69.5918 230.401 69.7 230.56C69.8869 230.816 70.1211 231.033 70.39 231.2C71.1658 231.718 71.9896 232.16 72.85 232.52V232.52Z" fill="#473F47"/>
<path d="M80.84 135.01C80.9284 134.391 80.9619 133.765 80.94 133.14C80.9318 132.494 80.7671 131.859 80.46 131.29C80.25 130.91 79.67 130.56 79.52 130.21C78.9671 129.111 78.186 128.143 77.2289 127.371C76.2717 126.598 75.1607 126.039 73.97 125.73C72.2192 125.491 70.4365 125.729 68.81 126.42C68.3814 126.531 67.9799 126.729 67.63 127C67.333 127.301 67.1045 127.663 66.96 128.06C66.5724 128.898 66.2384 129.76 65.96 130.64C65.2095 129.514 64.1745 128.607 62.96 128.01C62.247 127.773 61.4849 127.724 60.7475 127.868C60.01 128.012 59.3221 128.343 58.75 128.83C58.1892 129.325 57.7325 129.926 57.4063 130.599C57.0801 131.272 56.891 132.003 56.85 132.75C56.8921 133.712 56.8182 134.676 56.63 135.62C56.4408 136.17 56.1036 136.657 55.6554 137.027C55.2073 137.398 54.6656 137.638 54.09 137.72C54.6455 138.551 55.4319 139.201 56.3524 139.59C57.2728 139.979 58.2871 140.09 59.27 139.91C58.92 140.702 58.5191 141.47 58.07 142.21C59.3443 142.576 60.7065 142.484 61.92 141.95C62.6965 141.392 63.322 140.65 63.74 139.79L62.91 141.6C64.35 140.24 63.99 137.6 65.49 136.33C65.92 136.54 66.08 137.07 66.38 137.44C66.68 137.81 67.38 137.94 67.54 137.44C67.6371 138.581 68.0225 139.679 68.66 140.63C69.0976 141.202 69.67 141.656 70.3262 141.953C70.9823 142.25 71.7016 142.379 72.42 142.33C72.69 142.33 73.03 142.13 72.94 141.89C73.59 141.75 73.94 141.05 74.52 140.7C75.27 140.23 76.24 140.46 77.12 140.31C77.6469 140.191 78.1435 139.964 78.5788 139.644C79.0142 139.324 79.3788 138.917 79.65 138.45C80.2922 137.404 80.6983 136.23 80.84 135.01V135.01Z" fill="#FC682D"/>
<path d="M78.16 145.56C77.0431 146.169 75.7592 146.4 74.5 146.22C73.4284 145.769 72.56 144.94 72.06 143.89C72.69 143.76 72.87 142.89 72.86 139.18L73.14 139.24L77.93 140.18C77.93 140.18 77.82 141.69 77.82 143.11C77.81 144.3 77.89 145.43 78.16 145.56V145.56Z" fill="#FFB27D"/>
<path d="M77.93 140.18C77.93 140.18 77.82 141.69 77.82 143.11C75.14 143.03 73.72 140.59 73.14 139.24L77.93 140.18Z" fill="#ED975D"/>
<path d="M97.4 225.36C97.4909 225.66 97.46 225.983 97.314 226.26C97.1679 226.537 96.9186 226.746 96.62 226.84C96.5239 226.855 96.4261 226.855 96.33 226.84L94.46 226.93L92.46 226.99C92.2152 227 91.9716 226.951 91.7491 226.849C91.5266 226.746 91.3315 226.593 91.18 226.4C86.9907 221.1 83.8081 215.077 81.79 208.63C81.71 208.37 81.62 208.1 81.53 207.83C79.53 202.16 75.53 195.03 73.42 188.58C73.08 187.58 72.78 186.58 72.5 185.68C72.42 185.38 72.33 185.09 72.25 184.81C71.042 180.63 70.235 176.344 69.84 172.01L85.2 172.13C87.8211 190.174 91.9011 207.976 97.4 225.36V225.36Z" fill="#473F47"/>
<path d="M83.05 163.32C83.05 170.63 84.12 173.76 84.12 173.76C79.5853 175.774 74.4764 176.087 69.73 174.64L63.26 173.16C63.39 172.86 64.55 167.94 64.68 167.67C66.33 164.12 67.58 162.57 67.78 161.48C68.1131 159.457 68.177 157.399 67.97 155.36C67.6586 152.101 67.0221 148.882 66.07 145.75C68.2291 145.168 70.3472 144.443 72.41 143.58C73.3494 144.419 74.5707 144.873 75.83 144.85C77.39 144.85 77.89 144.15 77.83 143.42C79.49 144.34 80.83 145.21 80.83 145.21C82.24 147.66 85.1 150.04 85.3 153.8C85.32 154.72 83.05 163.12 83.05 163.32V163.32Z" fill="white"/>
<path d="M69.84 164.13C69.17 165.08 67.84 170.86 64.68 171.59C66.33 167.47 67.58 165.66 67.78 164.4C68.1131 162.045 68.1769 159.659 67.97 157.29C69.04 155.41 69.84 154.12 69.84 154.12C69.93 153.82 71.54 148.81 72.06 153.29C72.3194 157.038 71.5518 160.786 69.84 164.13Z" fill="#4FC3F7"/>
<path d="M78.82 141.53C78.82 141.53 72.49 141.63 72.48 137.69C72.47 133.75 71.66 131.1 75.7 130.86C79.74 130.62 80.54 132.13 80.86 133.45C81.18 134.77 80.52 141.4 78.82 141.53V141.53Z" fill="#FFB27D"/>
<path d="M78.59 130.77C78.59 130.77 76.85 135.4 74.19 136.08C71.53 136.76 70.38 136.08 70.38 136.08C71.6905 134.926 72.56 133.353 72.84 131.63C72.84 131.63 77.28 128.56 78.59 130.77V130.77Z" fill="#FC682D"/>
<path d="M78.16 131.14C78.8396 131.678 79.3898 132.361 79.77 133.14C80.09 134.14 80.23 136.21 80.83 136.14C80.83 136.14 82.14 133 80.67 131.22C79.2 129.44 78.16 131.14 78.16 131.14Z" fill="#FC682D"/>
<path d="M91.32 166.15L96.07 174.5L94.53 175.5L88.08 168.59L91.32 166.15V166.15Z" fill="#FFB27D"/>
<path d="M78.7 144.52C78.7 144.52 82.43 145.19 83.87 147.12C85.31 149.05 89.73 163.12 90.63 164.45C91.53 165.78 92.22 166.88 92.22 166.88C91.3875 167.911 90.2924 168.699 89.05 169.16C87.32 169.63 78.7 144.52 78.7 144.52V144.52Z" fill="#4FC3F7"/>
<path d="M77.81 143.42C77.81 143.42 81.48 152.47 81.59 154.31C81.7 156.15 82.02 184.31 82.02 184.31C82.02 184.31 81.8 185.6 84.28 185.06C85.3844 184.916 86.4488 184.553 87.41 183.99C87.41 183.99 85.04 166.63 85.68 160.6C86.32 154.57 80.68 144.72 80.68 144.72L77.81 143.42Z" fill="#4FC3F7"/>
<path d="M94.46 227.01L92.32 227.07C92.1296 227.08 91.9395 227.044 91.7656 226.966C91.5917 226.888 91.4389 226.769 91.32 226.62C87.0796 221.285 83.8591 215.213 81.82 208.71C81.74 208.45 81.65 208.18 81.56 207.91C79.56 202.24 75.56 195.11 73.45 188.66C73.11 187.66 72.81 186.66 72.53 185.76C72.45 185.46 72.36 185.17 72.28 184.89L74.54 183.18C74.54 183.18 81.33 194.18 83.43 204.52C85.26 213.47 92.57 224.29 94.46 227.01Z" fill="url(#paint13_linear_5:29)"/>
<path d="M74.78 205.45C74.78 210.21 74.59 220.82 74.01 226C73.9876 226.231 73.8798 226.445 73.7077 226.6C73.5357 226.756 73.3118 226.841 73.08 226.84H69.96C69.8183 226.836 69.682 226.785 69.5732 226.694C69.4643 226.603 69.3892 226.479 69.36 226.34C67.77 218.23 66.63 211.5 65.8 205.68C65.1 200.8 64.48 196.68 64 193.03C63.52 189.38 63.18 186.38 63.06 183.82V181.53L76.33 180.24C76.12 189.01 74.76 202.53 74.78 205.45V205.45Z" fill="#473F47"/>
<path d="M71.52 226.84H70.07C69.8985 226.837 69.733 226.776 69.6004 226.667C69.4679 226.558 69.3761 226.408 69.34 226.24C67.76 218.17 66.63 211.47 65.8 205.68C65.1 200.8 64.48 196.68 64 193.03C63.52 189.38 63.18 186.38 63.06 183.82L67.93 186.69C67.93 186.69 64.83 187.78 66.01 196.08C67.19 204.38 69.82 225.66 71.52 226.84V226.84Z" fill="url(#paint14_linear_5:29)"/>
<path d="M72.1 183.73C72.1 183.73 71.17 187.11 67.93 186.68C65.2439 186.168 62.6193 185.373 60.1 184.31C60.1 184.31 61.48 179.94 63.2 174.2C65.28 167.26 67.86 158.31 69.07 152.66C69.3595 151.39 69.5798 150.104 69.73 148.81L72.41 143.6C72.41 143.6 76.41 152.6 76.63 154.84C76.85 157.08 72.1 183.73 72.1 183.73V183.73Z" fill="#4FC3F7"/>
<path d="M71.96 159.59C71.81 163.25 70.96 170.37 63.26 174.17H63.2C65.28 167.23 67.86 158.28 69.07 152.63C70.52 154.77 72.04 157.57 71.96 159.59V159.59Z" fill="url(#paint15_linear_5:29)"/>
<path d="M72.41 143.6C72.41 143.6 65.85 144.07 64.27 147.6C62.69 151.13 62.76 155.77 62.91 159.53C63 161.81 63.06 164.18 64.13 166.25C65.5703 168.649 67.3372 170.837 69.38 172.75C69.6835 173.123 70.0802 173.409 70.53 173.58C71.0342 173.678 71.5567 173.612 72.02 173.39C73.0968 172.961 74.0712 172.31 74.88 171.48C74.55 171.19 74.42 170.48 74.17 170.05C73.7975 169.442 73.4635 168.81 73.17 168.16C72.5692 166.85 71.9017 165.572 71.17 164.33C70.4188 163.329 69.75 162.269 69.17 161.16C68.9168 160.592 68.7918 159.974 68.8039 159.352C68.816 158.73 68.9649 158.118 69.24 157.56C69.6674 156.164 70.0015 154.741 70.24 153.3C70.96 150.07 71.68 146.83 72.41 143.6V143.6Z" fill="#4FC3F7"/>
<path fill-rule="evenodd" clip-rule="evenodd" d="M108.1 219.55C106.72 218.93 105.6 219.72 105.6 221.32C105.634 222.146 105.883 222.949 106.321 223.651C106.759 224.352 107.372 224.927 108.1 225.32C109.48 225.94 110.59 225.15 110.59 223.55C110.558 222.725 110.311 221.922 109.875 221.22C109.438 220.519 108.826 219.943 108.1 219.55V219.55Z" fill="#4FC3F7"/>
<path fill-rule="evenodd" clip-rule="evenodd" d="M107.3 219.33C106.776 219.301 106.252 219.379 105.76 219.56C105.45 219.7 107.52 220.88 107.3 219.33ZM108.08 225.66C108.6 225.693 109.121 225.618 109.61 225.44C109.92 225.3 107.83 224.12 108.08 225.66Z" fill="#4FC3F7"/>
<path fill-rule="evenodd" clip-rule="evenodd" d="M107.19 219.66C105.81 219.04 104.7 219.83 104.7 221.43C104.73 222.256 104.976 223.06 105.413 223.761C105.85 224.463 106.462 225.038 107.19 225.43C108.57 226.06 109.69 225.27 109.69 223.67C109.656 222.843 109.407 222.038 108.969 221.335C108.531 220.632 107.918 220.055 107.19 219.66V219.66Z" fill="#4FC3F7"/>
<path fill-rule="evenodd" clip-rule="evenodd" d="M107.19 221.71C106.79 221.52 106.46 221.76 106.46 222.23C106.468 222.473 106.539 222.711 106.667 222.918C106.795 223.125 106.976 223.294 107.19 223.41C107.6 223.59 107.93 223.36 107.93 222.89C107.921 222.646 107.848 222.408 107.718 222.201C107.589 221.993 107.406 221.824 107.19 221.71V221.71ZM91.46 213.13L117.06 231L116.73 231.69L91.13 213.81L91.46 213.13Z" fill="#4FC3F7"/>
<path fill-rule="evenodd" clip-rule="evenodd" d="M94.7 212.16L120.3 230.03L119.98 230.72L94.37 212.84L94.7 212.16V212.16ZM98.24 209.78L123.84 227.65L123.51 228.32L97.91 210.46L98.24 209.78V209.78ZM101.89 208.88L127.49 226.75L127.16 227.44L101.56 209.56L101.89 208.88ZM123.52 230.32C122.14 229.7 121.03 230.49 121.03 232.09C121.062 232.915 121.309 233.718 121.745 234.42C122.182 235.121 122.794 235.697 123.52 236.09C124.9 236.71 126.02 235.92 126.02 234.32C125.986 233.494 125.737 232.691 125.299 231.989C124.861 231.288 124.248 230.713 123.52 230.32Z" fill="#4FC3F7"/>
<path fill-rule="evenodd" clip-rule="evenodd" d="M122.75 230.1C122.226 230.071 121.702 230.149 121.21 230.33C120.9 230.47 122.99 231.65 122.75 230.1ZM123.52 236.43C124.043 236.463 124.567 236.388 125.06 236.21C125.38 236.07 123.29 234.89 123.52 236.43Z" fill="#4FC3F7"/>
<path fill-rule="evenodd" clip-rule="evenodd" d="M122.64 230.43C121.27 229.81 120.15 230.6 120.15 232.2C120.18 233.026 120.426 233.83 120.863 234.531C121.3 235.233 121.912 235.808 122.64 236.2C124.02 236.83 125.14 236.04 125.14 234.44C125.106 233.612 124.857 232.808 124.419 232.105C123.981 231.402 123.368 230.825 122.64 230.43V230.43Z" fill="#4FC3F7"/>
<path fill-rule="evenodd" clip-rule="evenodd" d="M122.64 232.48C122.24 232.29 121.91 232.53 121.91 233C121.918 233.243 121.989 233.48 122.117 233.688C122.245 233.895 122.426 234.064 122.64 234.18C123.05 234.36 123.38 234.18 123.38 233.66C123.371 233.416 123.298 233.178 123.168 232.971C123.039 232.763 122.856 232.594 122.64 232.48V232.48Z" fill="#4FC3F7"/>
<path fill-rule="evenodd" clip-rule="evenodd" d="M123.23 229.22C123.224 229.055 123.162 228.897 123.055 228.772C122.948 228.647 122.802 228.561 122.64 228.53C122.578 228.517 122.515 228.516 122.452 228.527C122.39 228.539 122.331 228.562 122.278 228.597C122.225 228.631 122.18 228.676 122.144 228.728C122.108 228.78 122.083 228.838 122.07 228.9C122.065 228.94 122.065 228.98 122.07 229.02V233.22C122.075 233.383 122.136 233.54 122.241 233.665C122.346 233.79 122.49 233.876 122.65 233.91C122.709 233.927 122.771 233.931 122.832 233.923C122.893 233.916 122.951 233.896 123.005 233.865C123.058 233.834 123.104 233.793 123.141 233.744C123.178 233.695 123.205 233.639 123.22 233.58C123.23 233.53 123.23 233.479 123.22 233.43L123.23 229.22ZM107.78 218.46C107.773 218.295 107.711 218.136 107.604 218.01C107.497 217.883 107.352 217.795 107.19 217.76C107.127 217.747 107.062 217.746 106.999 217.758C106.935 217.77 106.875 217.794 106.821 217.83C106.767 217.865 106.721 217.911 106.685 217.964C106.648 218.017 106.623 218.077 106.61 218.14C106.605 218.176 106.605 218.213 106.61 218.25V222.45C106.616 222.615 106.678 222.773 106.785 222.898C106.892 223.023 107.038 223.108 107.2 223.14C107.259 223.157 107.321 223.161 107.382 223.153C107.443 223.146 107.501 223.126 107.555 223.095C107.608 223.064 107.654 223.023 107.691 222.974C107.728 222.925 107.755 222.869 107.77 222.81C107.78 222.76 107.78 222.71 107.77 222.66L107.78 218.46ZM108.58 187.72L109.4 211.43C109.401 211.523 109.434 211.613 109.495 211.685C109.555 211.756 109.638 211.804 109.73 211.82C109.767 211.823 109.804 211.818 109.839 211.807C109.874 211.795 109.906 211.776 109.934 211.752C109.962 211.728 109.985 211.699 110.001 211.666C110.018 211.633 110.027 211.597 110.03 211.56V211.51L109.22 187.8C109.216 187.708 109.181 187.62 109.121 187.549C109.061 187.479 108.98 187.43 108.89 187.41C108.853 187.406 108.816 187.409 108.78 187.419C108.745 187.43 108.712 187.447 108.683 187.47C108.654 187.493 108.63 187.522 108.612 187.555C108.595 187.587 108.584 187.623 108.58 187.66V187.72V187.72ZM129.1 202.22L125.1 222.52C125.084 222.612 125.1 222.707 125.146 222.789C125.191 222.871 125.263 222.935 125.35 222.97C125.383 222.984 125.418 222.992 125.454 222.992C125.489 222.992 125.525 222.985 125.558 222.971C125.591 222.957 125.62 222.936 125.645 222.91C125.669 222.884 125.688 222.854 125.7 222.82C125.704 222.8 125.704 222.78 125.7 222.76L129.7 202.47C129.724 202.382 129.717 202.288 129.681 202.205C129.645 202.121 129.581 202.052 129.5 202.01C129.435 201.982 129.361 201.98 129.294 202.004C129.227 202.028 129.172 202.077 129.14 202.14C129.136 202.163 129.136 202.187 129.14 202.21L129.1 202.22ZM114.21 191.69L112.73 213.84C112.724 213.934 112.751 214.027 112.806 214.103C112.86 214.18 112.939 214.235 113.03 214.26C113.102 214.275 113.176 214.261 113.238 214.222C113.299 214.183 113.343 214.121 113.36 214.05L114.84 191.89C114.846 191.796 114.819 191.703 114.764 191.627C114.71 191.55 114.631 191.495 114.54 191.47C114.468 191.455 114.394 191.469 114.332 191.508C114.271 191.547 114.227 191.609 114.21 191.68C114.21 191.683 114.21 191.687 114.21 191.69V191.69ZM123.75 198.43L120.12 219.01C120.109 219.102 120.128 219.195 120.175 219.274C120.222 219.354 120.294 219.415 120.38 219.45C120.443 219.478 120.514 219.482 120.579 219.459C120.644 219.437 120.698 219.391 120.73 219.33C120.735 219.3 120.735 219.27 120.73 219.24L124.35 198.68C124.364 198.588 124.347 198.494 124.302 198.412C124.257 198.331 124.186 198.267 124.1 198.23C124.067 198.216 124.032 198.208 123.996 198.208C123.961 198.208 123.925 198.215 123.892 198.229C123.859 198.243 123.83 198.264 123.805 198.29C123.781 198.316 123.762 198.346 123.75 198.38C123.746 198.403 123.746 198.427 123.75 198.45V198.43ZM116.43 216.43C116.421 216.523 116.444 216.616 116.494 216.694C116.545 216.772 116.621 216.831 116.71 216.86C116.774 216.883 116.844 216.88 116.905 216.852C116.967 216.824 117.015 216.773 117.04 216.71C117.045 216.68 117.045 216.65 117.04 216.62L119.72 195.39C119.725 195.314 119.709 195.239 119.674 195.172C119.638 195.105 119.585 195.049 119.52 195.01C119.487 194.997 119.452 194.991 119.417 194.993C119.382 194.994 119.348 195.002 119.316 195.017C119.284 195.032 119.256 195.054 119.232 195.08C119.209 195.106 119.191 195.137 119.18 195.17C119.176 195.196 119.176 195.223 119.18 195.25L116.43 216.43Z" fill="#4FC3F7"/>
<path fill-rule="evenodd" clip-rule="evenodd" d="M103.99 185.01L135.78 207.63L129.78 224.94L105.52 207.73L103.99 185.01ZM104.68 208.63L129.84 226.54C129.895 226.588 129.959 226.624 130.028 226.647C130.097 226.67 130.17 226.678 130.243 226.673C130.315 226.667 130.386 226.647 130.451 226.614C130.515 226.581 130.573 226.536 130.62 226.48L130.69 226.37L137.17 207.74C137.218 207.576 137.215 207.402 137.159 207.24C137.103 207.079 136.999 206.939 136.86 206.84L103.52 183.18C103.465 183.132 103.401 183.096 103.332 183.073C103.263 183.05 103.19 183.042 103.117 183.047C103.045 183.053 102.974 183.073 102.909 183.106C102.845 183.139 102.787 183.185 102.74 183.24L102.67 183.35C102.622 183.46 102.598 183.58 102.6 183.7L104.31 208.01C104.314 208.14 104.35 208.268 104.414 208.381C104.479 208.494 104.57 208.59 104.68 208.66V208.63Z" fill="#4FC3F7"/>
<path fill-rule="evenodd" clip-rule="evenodd" d="M110.19 211.9L91.71 218.59L91.38 217.79L109.87 211.1L110.19 211.9V211.9ZM113.53 214.38L95.04 221.06L94.72 220.28L113.21 213.59L113.53 214.38ZM117.02 216.69L98.54 223.38L98.21 222.59L116.7 215.91L117.02 216.69V216.69ZM121.33 219.75L102.84 226.43L102.52 225.63L121.01 218.96L121.33 219.75ZM125.77 223.1L107.28 229.79L106.96 229L125.45 222.31L125.77 223.1ZM87.67 214.01L81.62 192.94L102.71 184.75L104.27 207.55L87.67 214.01ZM105.57 208.12L103.9 183.8C103.891 183.616 103.818 183.44 103.694 183.304C103.57 183.167 103.402 183.077 103.22 183.05C103.131 183.046 103.042 183.064 102.96 183.1L80.56 191.8C80.4197 191.868 80.3094 191.985 80.2503 192.129C80.1912 192.273 80.1875 192.433 80.24 192.58L86.69 215.01C86.7285 215.188 86.8314 215.346 86.979 215.453C87.1267 215.56 87.3086 215.609 87.49 215.59H87.6L105.23 208.74C105.347 208.689 105.444 208.6 105.505 208.488C105.567 208.376 105.59 208.246 105.57 208.12V208.12Z" fill="#4FC3F7"/>
<path fill-rule="evenodd" clip-rule="evenodd" d="M98.96 185.29L101.32 209.34C101.326 209.433 101.365 209.52 101.429 209.588C101.492 209.655 101.578 209.699 101.67 209.71C101.709 209.71 101.747 209.702 101.782 209.687C101.817 209.672 101.849 209.649 101.875 209.621C101.902 209.593 101.922 209.56 101.935 209.523C101.948 209.487 101.953 209.448 101.95 209.41L99.6 185.36C99.5919 185.268 99.553 185.181 99.4894 185.114C99.4259 185.047 99.3415 185.003 99.25 184.99C99.1731 184.99 99.0993 185.021 99.0449 185.075C98.9906 185.129 98.96 185.203 98.96 185.28V185.29ZM94.41 187.07L97.91 210.69C97.9217 210.781 97.9652 210.865 98.0329 210.928C98.1006 210.99 98.1881 211.026 98.28 211.03C98.3181 211.027 98.3554 211.017 98.3896 211C98.4238 210.983 98.4543 210.96 98.4794 210.931C98.5045 210.902 98.5237 210.869 98.5358 210.833C98.5479 210.796 98.5527 210.758 98.55 210.72V210.67L95.05 187.06C95.0386 186.97 94.9965 186.888 94.9309 186.826C94.8652 186.764 94.7801 186.726 94.69 186.72C94.614 186.725 94.5427 186.759 94.4907 186.815C94.4387 186.87 94.4098 186.944 94.41 187.02V187.07V187.07ZM86.41 190.2L90.68 213.51C90.6897 213.602 90.7327 213.687 90.8008 213.75C90.8689 213.813 90.9575 213.848 91.05 213.85C91.0895 213.845 91.1277 213.832 91.1623 213.813C91.1968 213.793 91.2271 213.766 91.2513 213.735C91.2755 213.703 91.2932 213.667 91.3032 213.628C91.3133 213.59 91.3156 213.549 91.31 213.51L87.04 190.2C87.0258 190.109 86.9799 190.026 86.9104 189.966C86.8408 189.905 86.7521 189.871 86.66 189.87C86.6232 189.874 86.5874 189.885 86.5548 189.902C86.5223 189.92 86.4935 189.944 86.4703 189.973C86.447 190.002 86.4297 190.035 86.4194 190.07C86.409 190.106 86.4058 190.143 86.41 190.18C86.4094 190.187 86.4094 190.193 86.41 190.2V190.2ZM90.65 188.28C90.7419 188.284 90.8294 188.32 90.8971 188.382C90.9648 188.445 91.0083 188.529 91.02 188.62L94.92 212.08C94.9304 212.117 94.9332 212.155 94.9282 212.193C94.9231 212.231 94.9104 212.268 94.8907 212.3C94.871 212.333 94.8449 212.362 94.8138 212.384C94.7827 212.406 94.7474 212.422 94.71 212.43C94.6181 212.426 94.5306 212.39 94.4629 212.328C94.3952 212.265 94.3517 212.181 94.34 212.09L90.44 188.64C90.4293 188.603 90.426 188.565 90.4303 188.527C90.4346 188.489 90.4464 188.452 90.465 188.418C90.4836 188.385 90.5086 188.355 90.5387 188.332C90.5687 188.308 90.6031 188.29 90.64 188.28H90.65ZM104.97 217.12C104.986 217.282 105.056 217.434 105.168 217.552C105.281 217.669 105.429 217.746 105.59 217.77C105.651 217.782 105.714 217.781 105.775 217.768C105.836 217.755 105.893 217.73 105.944 217.695C105.995 217.66 106.039 217.614 106.073 217.562C106.106 217.51 106.129 217.451 106.14 217.39C106.145 217.343 106.145 217.297 106.14 217.25L103.25 175.25C103.236 175.085 103.165 174.929 103.051 174.809C102.936 174.69 102.784 174.612 102.62 174.59C102.559 174.58 102.496 174.582 102.436 174.596C102.376 174.611 102.319 174.637 102.269 174.673C102.219 174.709 102.176 174.755 102.144 174.808C102.111 174.86 102.09 174.919 102.08 174.98C102.07 175.026 102.07 175.074 102.08 175.12L104.97 217.12Z" fill="#4FC3F7"/>
<path fill-rule="evenodd" clip-rule="evenodd" d="M103.18 176.16C103.291 176.109 103.391 176.037 103.473 175.948C103.556 175.858 103.62 175.754 103.662 175.639C103.704 175.525 103.723 175.403 103.717 175.281C103.712 175.16 103.682 175.04 103.63 174.93C103.614 174.888 103.594 174.848 103.57 174.81C103.451 174.549 103.242 174.34 102.981 174.222C102.719 174.105 102.424 174.086 102.15 174.17L78.02 183.54C77.7994 183.641 77.6268 183.823 77.539 184.049C77.4512 184.275 77.4551 184.527 77.55 184.75C77.5673 184.796 77.5908 184.84 77.62 184.88C77.7418 185.139 77.9512 185.346 78.2111 185.465C78.471 185.584 78.7647 185.607 79.04 185.53L103.18 176.16Z" fill="#4FC3F7"/>
<path d="M95.6 174.34C95.6 174.34 98.6 175.27 99.16 176.34C99.72 177.41 99.98 179.8 99.55 179.86C99.12 179.92 97.97 177.53 97.55 177.43C97.13 177.33 96.55 176.9 96.64 177.28C96.73 177.66 97.22 178.28 97.06 178.45C96.9 178.62 96.12 177.61 95.69 177.45C95.26 177.29 94.75 175.61 94.27 175.21C93.79 174.81 95.6 174.34 95.6 174.34V174.34ZM74.88 170.82L79.63 179.16L78.1 180.19L71.64 173.26L74.88 170.82Z" fill="#4FC3F7"/>
<path d="M79.17 179.01C79.418 179.073 79.6592 179.16 79.89 179.27C80.3941 179.412 80.8731 179.631 81.31 179.92C82.0642 180.569 82.6681 181.374 83.08 182.28C83.2092 182.498 83.2879 182.743 83.3104 182.995C83.3329 183.248 83.2986 183.502 83.21 183.74C82.9914 184.043 82.689 184.276 82.34 184.41C82.2474 184.461 82.1452 184.491 82.04 184.5C81.8784 184.476 81.7282 184.403 81.61 184.29L79.4 182.44C79.0722 182.203 78.7937 181.904 78.58 181.56C78.39 181.22 78.33 180.82 78.16 180.47C77.99 180.12 77.65 179.92 77.9 179.58C78.15 179.24 78.8 179.12 79.17 179.01V179.01Z" fill="#4FC3F7"/>
<path fill-rule="evenodd" clip-rule="evenodd" d="M88.86 222.81C88.8998 222.969 88.9953 223.109 89.1291 223.205C89.2629 223.3 89.4263 223.344 89.59 223.33C89.7158 223.315 89.8305 223.251 89.9092 223.152C89.9879 223.052 90.0241 222.926 90.01 222.8V222.68L79.12 184.46C79.0766 184.303 78.9804 184.165 78.8474 184.07C78.7145 183.976 78.5529 183.93 78.39 183.94C78.2626 183.96 78.1477 184.028 78.0695 184.131C77.9912 184.233 77.9556 184.362 77.97 184.49V184.6L88.86 222.81ZM92.52 225.9C91.14 225.27 90.03 226.06 90.03 227.66C90.0622 228.485 90.3088 229.288 90.7454 229.99C91.1819 230.691 91.7935 231.267 92.52 231.66C93.9 232.28 95.02 231.49 95.02 229.89C94.987 229.065 94.739 228.262 94.3005 227.563C93.862 226.863 93.2482 226.29 92.52 225.9V225.9Z" fill="#4FC3F7"/>
<path fill-rule="evenodd" clip-rule="evenodd" d="M91.75 225.67C91.2264 225.641 90.7023 225.719 90.21 225.9C89.9 226.01 91.99 227.22 91.75 225.67ZM92.52 232.01C93.0431 232.048 93.5683 231.972 94.06 231.79C94.38 231.64 92.29 230.46 92.52 232.01Z" fill="#4FC3F7"/>
<path fill-rule="evenodd" clip-rule="evenodd" d="M91.64 226.01C90.27 225.39 89.15 226.18 89.15 227.78C89.1803 228.606 89.426 229.41 89.8628 230.111C90.2996 230.813 90.9122 231.388 91.64 231.78C93.02 232.41 94.14 231.62 94.14 230.02C94.1055 229.192 93.8571 228.388 93.4189 227.685C92.9807 226.982 92.3678 226.405 91.64 226.01V226.01Z" fill="#4FC3F7"/>
<path fill-rule="evenodd" clip-rule="evenodd" d="M91.64 228.01C91.24 227.82 90.91 228.06 90.91 228.53C90.9177 228.773 90.9891 229.011 91.1172 229.218C91.2453 229.425 91.4256 229.595 91.64 229.71C92.05 229.9 92.38 229.71 92.38 229.19C92.3714 228.946 92.2984 228.708 92.1685 228.501C92.0385 228.293 91.8562 228.124 91.64 228.01V228.01ZM108 236.66C106.63 236.04 105.51 236.83 105.51 238.43C105.542 239.255 105.789 240.058 106.225 240.76C106.662 241.461 107.274 242.037 108 242.43C109.38 243.05 110.5 242.26 110.5 240.66C110.466 239.834 110.217 239.031 109.779 238.329C109.341 237.628 108.728 237.053 108 236.66V236.66Z" fill="#4FC3F7"/>
<path fill-rule="evenodd" clip-rule="evenodd" d="M107.2 236.44C106.676 236.411 106.152 236.489 105.66 236.67C105.36 236.81 107.44 238.01 107.2 236.44ZM107.98 242.77C108.503 242.802 109.027 242.728 109.52 242.55C109.83 242.41 107.74 241.23 107.98 242.77Z" fill="#4FC3F7"/>
<path fill-rule="evenodd" clip-rule="evenodd" d="M107.1 236.77C105.72 236.15 104.6 236.94 104.6 238.54C104.631 239.367 104.879 240.171 105.317 240.873C105.756 241.575 106.37 242.15 107.1 242.54C108.48 243.17 109.59 242.38 109.59 240.78C109.559 239.953 109.314 239.148 108.877 238.445C108.44 237.741 107.828 237.164 107.1 236.77V236.77Z" fill="#4FC3F7"/>
<path fill-rule="evenodd" clip-rule="evenodd" d="M107.69 235.57C107.683 235.405 107.621 235.246 107.514 235.12C107.407 234.993 107.262 234.905 107.1 234.87C107.038 234.855 106.974 234.853 106.912 234.863C106.849 234.873 106.789 234.895 106.735 234.929C106.681 234.962 106.634 235.006 106.597 235.058C106.56 235.11 106.534 235.168 106.52 235.23C106.515 235.273 106.515 235.317 106.52 235.36V239.56C106.527 239.725 106.589 239.884 106.696 240.01C106.803 240.137 106.948 240.225 107.11 240.26C107.173 240.273 107.238 240.274 107.301 240.262C107.365 240.25 107.425 240.226 107.479 240.19C107.533 240.155 107.579 240.109 107.615 240.056C107.652 240.003 107.677 239.943 107.69 239.88C107.695 239.844 107.695 239.807 107.69 239.77V235.57Z" fill="#4FC3F7"/>
<path fill-rule="evenodd" clip-rule="evenodd" d="M126.57 232.83L105.27 217.65L90.92 223.12L112.16 238.45L126.57 232.83ZM111.86 239.56L89.43 223.38C89.2945 223.293 89.196 223.159 89.1535 223.004C89.111 222.849 89.1276 222.684 89.2 222.54C89.2503 222.454 89.3277 222.387 89.42 222.35L104.98 216.42C105.078 216.39 105.183 216.384 105.284 216.403C105.385 216.422 105.48 216.466 105.56 216.53L128.06 232.53C128.195 232.617 128.294 232.751 128.336 232.906C128.379 233.061 128.362 233.226 128.29 233.37C128.238 233.464 128.152 233.536 128.05 233.57L112.45 239.65C112.352 239.685 112.247 239.695 112.144 239.679C112.041 239.664 111.943 239.623 111.86 239.56V239.56Z" fill="#4FC3F7"/>
<path fill-rule="evenodd" clip-rule="evenodd" d="M92.23 224.8C92.2258 224.635 92.1649 224.476 92.0575 224.35C91.95 224.225 91.8026 224.14 91.64 224.11C91.5796 224.095 91.5168 224.092 91.4553 224.102C91.3939 224.112 91.3349 224.133 91.2819 224.166C91.2288 224.198 91.1828 224.241 91.1464 224.292C91.1101 224.342 91.0841 224.399 91.07 224.46C91.065 224.503 91.065 224.547 91.07 224.59V228.79C91.075 228.955 91.1348 229.113 91.2398 229.24C91.3449 229.366 91.4892 229.454 91.65 229.49C91.7117 229.505 91.7758 229.507 91.8385 229.497C91.9012 229.487 91.9612 229.465 92.0152 229.431C92.0691 229.398 92.1159 229.354 92.1527 229.302C92.1896 229.25 92.2159 229.192 92.23 229.13C92.235 229.087 92.235 229.043 92.23 229V224.8ZM109.68 220.01L109.36 219.22L93.13 225.09L93.45 225.88L109.68 220.01ZM113.02 222.5L96.79 228.37L96.47 227.58L112.7 221.71L113.02 222.5ZM116.52 224.81L100.29 230.68L99.97 229.89L116.19 224.01L116.51 224.8L116.52 224.81ZM120.83 227.81L104.6 233.68L104.28 232.89L120.52 227.08L120.84 227.87L120.83 227.81ZM109.04 237.04L108.72 236.25L124.95 230.38L125.27 231.17L109.04 237.04Z" fill="#4FC3F7"/>
<path fill-rule="evenodd" clip-rule="evenodd" d="M123.52 230.32C122.14 229.7 121.03 230.49 121.03 232.09C121.062 232.915 121.309 233.718 121.745 234.42C122.182 235.121 122.794 235.697 123.52 236.09C124.9 236.71 126.02 235.92 126.02 234.32C125.986 233.494 125.737 232.691 125.299 231.989C124.861 231.288 124.248 230.713 123.52 230.32Z" fill="url(#paint16_linear_5:29)"/>
<path fill-rule="evenodd" clip-rule="evenodd" d="M122.75 230.1C122.226 230.071 121.702 230.149 121.21 230.33C120.9 230.47 122.99 231.65 122.75 230.1Z" fill="url(#paint17_linear_5:29)"/>
<path fill-rule="evenodd" clip-rule="evenodd" d="M123.52 236.43C124.043 236.463 124.567 236.388 125.06 236.21C125.38 236.07 123.29 234.89 123.52 236.43Z" fill="url(#paint18_linear_5:29)"/>
<path fill-rule="evenodd" clip-rule="evenodd" d="M122.64 230.43C121.27 229.81 120.15 230.6 120.15 232.2C120.18 233.026 120.426 233.83 120.863 234.531C121.3 235.233 121.912 235.808 122.64 236.2C124.02 236.83 125.14 236.04 125.14 234.44C125.106 233.612 124.857 232.808 124.419 232.105C123.981 231.402 123.368 230.825 122.64 230.43V230.43Z" fill="#473F47"/>
<path fill-rule="evenodd" clip-rule="evenodd" d="M122.64 232.48C122.24 232.29 121.91 232.53 121.91 233C121.918 233.243 121.989 233.48 122.117 233.688C122.245 233.895 122.426 234.064 122.64 234.18C123.05 234.36 123.38 234.18 123.38 233.66C123.371 233.416 123.298 233.178 123.168 232.971C123.039 232.763 122.856 232.594 122.64 232.48Z" fill="url(#paint19_linear_5:29)"/>
<path fill-rule="evenodd" clip-rule="evenodd" d="M123.23 229.22C123.224 229.055 123.162 228.897 123.055 228.772C122.948 228.647 122.802 228.562 122.64 228.53C122.578 228.517 122.515 228.516 122.452 228.527C122.39 228.539 122.331 228.562 122.278 228.597C122.225 228.631 122.18 228.676 122.144 228.728C122.108 228.78 122.083 228.838 122.07 228.9C122.065 228.94 122.065 228.98 122.07 229.02V233.22C122.075 233.383 122.136 233.54 122.241 233.665C122.346 233.79 122.49 233.877 122.65 233.91C122.709 233.927 122.771 233.931 122.832 233.923C122.893 233.916 122.951 233.896 123.005 233.865C123.058 233.834 123.104 233.793 123.141 233.744C123.178 233.695 123.205 233.64 123.22 233.58C123.23 233.531 123.23 233.48 123.22 233.43L123.23 229.22Z" fill="url(#paint20_linear_5:29)"/>
<path fill-rule="evenodd" clip-rule="evenodd" d="M108.58 187.72L109.4 211.43C109.401 211.523 109.434 211.613 109.495 211.685C109.555 211.756 109.638 211.804 109.73 211.82C109.767 211.823 109.804 211.818 109.839 211.807C109.874 211.795 109.906 211.776 109.934 211.752C109.962 211.728 109.985 211.699 110.001 211.666C110.018 211.633 110.027 211.597 110.03 211.56V211.51L109.22 187.8C109.216 187.708 109.181 187.62 109.121 187.549C109.061 187.479 108.98 187.43 108.89 187.41C108.853 187.406 108.816 187.409 108.78 187.419C108.745 187.43 108.712 187.447 108.683 187.47C108.654 187.494 108.63 187.522 108.612 187.555C108.595 187.587 108.584 187.623 108.58 187.66V187.72ZM129.1 202.22L125.1 222.52C125.084 222.612 125.1 222.707 125.146 222.789C125.191 222.871 125.263 222.935 125.35 222.97C125.383 222.984 125.418 222.992 125.454 222.992C125.489 222.992 125.525 222.985 125.558 222.971C125.591 222.957 125.62 222.936 125.645 222.91C125.669 222.884 125.688 222.854 125.7 222.82C125.704 222.8 125.704 222.78 125.7 222.76L129.7 202.47C129.724 202.382 129.717 202.288 129.681 202.205C129.645 202.121 129.581 202.052 129.5 202.01C129.435 201.982 129.361 201.98 129.294 202.004C129.227 202.028 129.172 202.077 129.14 202.14C129.136 202.163 129.136 202.187 129.14 202.21L129.1 202.22ZM114.21 191.69L112.73 213.84C112.724 213.934 112.751 214.027 112.806 214.103C112.86 214.18 112.939 214.235 113.03 214.26C113.102 214.275 113.176 214.261 113.238 214.222C113.299 214.183 113.343 214.121 113.36 214.05L114.84 191.89C114.846 191.796 114.819 191.703 114.764 191.627C114.71 191.55 114.631 191.495 114.54 191.47C114.468 191.455 114.394 191.469 114.332 191.508C114.271 191.547 114.227 191.609 114.21 191.68C114.21 191.683 114.21 191.687 114.21 191.69V191.69ZM123.75 198.43L120.12 219.01C120.109 219.102 120.128 219.195 120.175 219.274C120.222 219.354 120.294 219.415 120.38 219.45C120.443 219.478 120.514 219.482 120.579 219.459C120.644 219.437 120.698 219.391 120.73 219.33C120.735 219.3 120.735 219.27 120.73 219.24L124.35 198.68C124.364 198.588 124.347 198.494 124.302 198.412C124.257 198.331 124.186 198.267 124.1 198.23C124.067 198.216 124.032 198.208 123.996 198.208C123.961 198.208 123.925 198.215 123.892 198.229C123.859 198.243 123.83 198.264 123.805 198.29C123.781 198.316 123.762 198.346 123.75 198.38C123.746 198.403 123.746 198.427 123.75 198.45V198.43ZM116.43 216.43C116.421 216.523 116.444 216.616 116.494 216.694C116.545 216.772 116.621 216.831 116.71 216.86C116.774 216.883 116.844 216.88 116.905 216.852C116.967 216.824 117.015 216.773 117.04 216.71C117.045 216.68 117.045 216.65 117.04 216.62L119.72 195.39C119.725 195.314 119.709 195.239 119.674 195.172C119.638 195.105 119.585 195.049 119.52 195.01C119.487 194.997 119.452 194.991 119.417 194.993C119.382 194.994 119.348 195.002 119.316 195.017C119.284 195.032 119.256 195.054 119.232 195.08C119.209 195.106 119.191 195.137 119.18 195.17C119.176 195.196 119.176 195.224 119.18 195.25L116.43 216.43Z" fill="url(#paint21_linear_5:29)"/>
<path fill-rule="evenodd" clip-rule="evenodd" d="M103.99 185.01L135.78 207.63L129.78 224.94L105.52 207.73L103.99 185.01ZM104.68 208.63L129.84 226.54C129.895 226.588 129.959 226.624 130.028 226.647C130.097 226.67 130.17 226.678 130.243 226.673C130.315 226.667 130.386 226.647 130.451 226.614C130.515 226.581 130.573 226.536 130.62 226.48L130.69 226.37L137.17 207.74C137.218 207.576 137.215 207.402 137.159 207.24C137.103 207.079 136.999 206.939 136.86 206.84L103.52 183.18C103.465 183.132 103.401 183.096 103.332 183.073C103.263 183.05 103.19 183.042 103.117 183.047C103.045 183.053 102.974 183.073 102.909 183.106C102.845 183.139 102.787 183.184 102.74 183.24L102.67 183.35C102.622 183.46 102.598 183.58 102.6 183.7L104.31 208.01C104.314 208.14 104.35 208.268 104.414 208.381C104.479 208.494 104.57 208.59 104.68 208.66V208.63Z" fill="url(#paint22_linear_5:29)"/>
<path fill-rule="evenodd" clip-rule="evenodd" d="M87.67 214.01L81.62 192.94L102.71 184.75L104.27 207.55L87.67 214.01ZM105.57 208.12L103.9 183.8C103.891 183.616 103.818 183.44 103.694 183.304C103.57 183.167 103.402 183.077 103.22 183.05C103.131 183.046 103.042 183.063 102.96 183.1L80.56 191.8C80.4197 191.867 80.3094 191.985 80.2503 192.129C80.1912 192.273 80.1875 192.433 80.24 192.58L86.69 215.01C86.7284 215.188 86.8314 215.346 86.979 215.453C87.1266 215.56 87.3086 215.609 87.49 215.59H87.6L105.23 208.74C105.347 208.689 105.444 208.6 105.505 208.488C105.567 208.376 105.59 208.246 105.57 208.12V208.12Z" fill="url(#paint23_linear_5:29)"/>
<path fill-rule="evenodd" clip-rule="evenodd" d="M98.96 185.29L101.32 209.34C101.326 209.433 101.365 209.52 101.428 209.588C101.492 209.655 101.578 209.699 101.67 209.71C101.709 209.71 101.747 209.702 101.782 209.687C101.817 209.672 101.849 209.649 101.875 209.621C101.902 209.593 101.922 209.56 101.935 209.523C101.948 209.487 101.953 209.448 101.95 209.41L99.6 185.36C99.5919 185.268 99.553 185.181 99.4894 185.114C99.4259 185.047 99.3415 185.003 99.25 184.99C99.1731 184.99 99.0993 185.021 99.0449 185.075C98.9906 185.129 98.96 185.203 98.96 185.28V185.29ZM94.41 187.07L97.91 210.69C97.9217 210.781 97.9652 210.865 98.0329 210.928C98.1006 210.99 98.1881 211.026 98.28 211.03C98.3181 211.027 98.3553 211.017 98.3896 211C98.4238 210.983 98.4543 210.96 98.4794 210.931C98.5045 210.902 98.5237 210.869 98.5358 210.833C98.5479 210.796 98.5527 210.758 98.55 210.72V210.67L95.05 187.06C95.0386 186.97 94.9965 186.888 94.9309 186.826C94.8652 186.764 94.7801 186.726 94.69 186.72C94.6139 186.725 94.5427 186.759 94.4907 186.815C94.4387 186.87 94.4098 186.944 94.41 187.02V187.07V187.07ZM86.41 190.2L90.68 213.51C90.6897 213.602 90.7327 213.687 90.8008 213.75C90.8689 213.812 90.9575 213.848 91.05 213.85C91.0895 213.845 91.1277 213.832 91.1623 213.813C91.1968 213.793 91.2271 213.766 91.2513 213.735C91.2755 213.703 91.2932 213.667 91.3032 213.628C91.3133 213.59 91.3156 213.549 91.31 213.51L87.04 190.2C87.0258 190.109 86.9799 190.026 86.9104 189.965C86.8408 189.905 86.7521 189.871 86.66 189.87C86.6231 189.874 86.5874 189.885 86.5548 189.902C86.5223 189.92 86.4935 189.944 86.4703 189.973C86.447 190.002 86.4297 190.035 86.4194 190.07C86.409 190.106 86.4058 190.143 86.41 190.18C86.4094 190.187 86.4094 190.193 86.41 190.2V190.2ZM90.65 188.28C90.7418 188.284 90.8293 188.32 90.897 188.382C90.9647 188.445 91.0083 188.529 91.02 188.62L94.92 212.08C94.9304 212.117 94.9332 212.155 94.9282 212.193C94.9231 212.231 94.9104 212.268 94.8907 212.3C94.871 212.333 94.8448 212.362 94.8138 212.384C94.7827 212.406 94.7474 212.422 94.71 212.43C94.6181 212.426 94.5306 212.39 94.4629 212.328C94.3952 212.265 94.3517 212.181 94.34 212.09L90.44 188.64C90.4293 188.603 90.426 188.565 90.4303 188.527C90.4346 188.489 90.4464 188.452 90.465 188.418C90.4836 188.385 90.5086 188.355 90.5387 188.332C90.5687 188.308 90.6031 188.29 90.64 188.28H90.65Z" fill="url(#paint24_linear_5:29)"/>
<path fill-rule="evenodd" clip-rule="evenodd" d="M104.97 217.12C104.986 217.282 105.056 217.434 105.168 217.552C105.281 217.669 105.429 217.746 105.59 217.77C105.651 217.782 105.714 217.781 105.775 217.768C105.836 217.755 105.893 217.73 105.944 217.695C105.996 217.66 106.039 217.614 106.073 217.562C106.106 217.51 106.129 217.451 106.14 217.39C106.145 217.343 106.145 217.297 106.14 217.25L103.25 175.25C103.236 175.085 103.165 174.929 103.051 174.809C102.936 174.69 102.784 174.612 102.62 174.59C102.559 174.58 102.496 174.582 102.436 174.596C102.376 174.611 102.319 174.637 102.269 174.673C102.219 174.709 102.176 174.755 102.144 174.808C102.111 174.86 102.09 174.919 102.08 174.98C102.07 175.026 102.07 175.074 102.08 175.12L104.97 217.12Z" fill="url(#paint25_linear_5:29)"/>
<path fill-rule="evenodd" clip-rule="evenodd" d="M103.18 176.16C103.291 176.109 103.391 176.037 103.473 175.948C103.556 175.858 103.62 175.754 103.662 175.639C103.704 175.525 103.723 175.403 103.717 175.281C103.712 175.16 103.682 175.04 103.63 174.93C103.614 174.888 103.594 174.848 103.57 174.81C103.451 174.549 103.242 174.34 102.981 174.222C102.719 174.105 102.424 174.086 102.15 174.17L78.02 183.54C77.7994 183.641 77.6268 183.823 77.539 184.049C77.4512 184.275 77.4551 184.527 77.55 184.75C77.5673 184.796 77.5908 184.84 77.62 184.88C77.7418 185.139 77.9512 185.346 78.2111 185.465C78.471 185.584 78.7647 185.607 79.04 185.53L103.18 176.16Z" fill="#4FC3F7"/>
<path d="M95.6 174.34C95.6 174.34 98.6 175.27 99.16 176.34C99.72 177.41 99.98 179.8 99.55 179.86C99.12 179.92 97.97 177.53 97.55 177.43C97.13 177.33 96.55 176.9 96.64 177.28C96.73 177.66 97.22 178.28 97.06 178.45C96.9 178.62 96.12 177.61 95.69 177.45C95.26 177.29 94.75 175.61 94.27 175.21C93.79 174.81 95.6 174.34 95.6 174.34V174.34ZM74.88 170.82L79.63 179.16L78.1 180.19L71.64 173.26L74.88 170.82Z" fill="#FFB27D"/>
<path d="M79.17 179.01C79.418 179.073 79.6592 179.16 79.89 179.27C80.3941 179.412 80.8731 179.631 81.31 179.92C82.0642 180.569 82.6681 181.374 83.08 182.28C83.2092 182.498 83.2879 182.743 83.3104 182.995C83.3329 183.248 83.2986 183.502 83.21 183.74C82.9914 184.043 82.689 184.276 82.34 184.41C82.2474 184.461 82.1452 184.491 82.04 184.5C81.8784 184.476 81.7282 184.403 81.61 184.29L79.4 182.44C79.0722 182.203 78.7937 181.904 78.58 181.56C78.39 181.22 78.33 180.82 78.16 180.47C77.99 180.12 77.65 179.92 77.9 179.58C78.15 179.24 78.8 179.12 79.17 179.01V179.01Z" fill="#FFB27D"/>
<path fill-rule="evenodd" clip-rule="evenodd" d="M88.86 222.81C88.8998 222.969 88.9953 223.109 89.1291 223.205C89.2629 223.3 89.4263 223.344 89.59 223.33C89.7158 223.315 89.8305 223.251 89.9092 223.152C89.9878 223.052 90.0241 222.926 90.01 222.8V222.68L79.12 184.46C79.0766 184.303 78.9804 184.165 78.8474 184.07C78.7145 183.976 78.5529 183.93 78.39 183.94C78.2626 183.96 78.1477 184.028 78.0695 184.131C77.9912 184.233 77.9556 184.362 77.97 184.49V184.6L88.86 222.81Z" fill="url(#paint26_linear_5:29)"/>
<path fill-rule="evenodd" clip-rule="evenodd" d="M92.52 225.9C91.14 225.27 90.03 226.06 90.03 227.66C90.0623 228.485 90.3088 229.288 90.7454 229.99C91.1819 230.691 91.7935 231.267 92.52 231.66C93.9 232.28 95.02 231.49 95.02 229.89C94.987 229.065 94.739 228.262 94.3005 227.563C93.862 226.863 93.2482 226.29 92.52 225.9V225.9Z" fill="url(#paint27_linear_5:29)"/>
<path fill-rule="evenodd" clip-rule="evenodd" d="M91.75 225.67C91.2264 225.641 90.7023 225.719 90.21 225.9C89.9 226.01 91.99 227.22 91.75 225.67Z" fill="url(#paint28_linear_5:29)"/>
<path fill-rule="evenodd" clip-rule="evenodd" d="M92.52 232.01C93.0432 232.048 93.5683 231.973 94.06 231.79C94.38 231.64 92.29 230.46 92.52 232.01Z" fill="url(#paint29_linear_5:29)"/>
<path fill-rule="evenodd" clip-rule="evenodd" d="M91.64 226.01C90.27 225.39 89.15 226.18 89.15 227.78C89.1803 228.606 89.426 229.41 89.8628 230.111C90.2996 230.813 90.9122 231.388 91.64 231.78C93.02 232.41 94.14 231.62 94.14 230.02C94.1055 229.192 93.8571 228.388 93.4189 227.685C92.9807 226.982 92.3678 226.405 91.64 226.01V226.01Z" fill="#473F47"/>
<path fill-rule="evenodd" clip-rule="evenodd" d="M91.64 228.01C91.24 227.82 90.91 228.06 90.91 228.53C90.9176 228.773 90.9891 229.011 91.1172 229.218C91.2453 229.425 91.4256 229.594 91.64 229.71C92.05 229.9 92.38 229.71 92.38 229.19C92.3714 228.946 92.2984 228.708 92.1685 228.501C92.0385 228.293 91.8562 228.124 91.64 228.01V228.01Z" fill="url(#paint30_linear_5:29)"/>
<path fill-rule="evenodd" clip-rule="evenodd" d="M108 236.66C106.63 236.04 105.51 236.83 105.51 238.43C105.542 239.255 105.789 240.058 106.225 240.76C106.662 241.461 107.274 242.037 108 242.43C109.38 243.05 110.5 242.26 110.5 240.66C110.466 239.834 110.217 239.031 109.779 238.329C109.341 237.628 108.728 237.053 108 236.66V236.66Z" fill="url(#paint31_linear_5:29)"/>
<path fill-rule="evenodd" clip-rule="evenodd" d="M107.2 236.44C106.676 236.411 106.152 236.489 105.66 236.67C105.36 236.81 107.44 238.01 107.2 236.44Z" fill="url(#paint32_linear_5:29)"/>
<path fill-rule="evenodd" clip-rule="evenodd" d="M107.98 242.77C108.503 242.803 109.027 242.728 109.52 242.55C109.83 242.41 107.74 241.23 107.98 242.77Z" fill="url(#paint33_linear_5:29)"/>
<path fill-rule="evenodd" clip-rule="evenodd" d="M107.1 236.77C105.72 236.15 104.6 236.94 104.6 238.54C104.631 239.367 104.879 240.171 105.317 240.873C105.756 241.575 106.37 242.15 107.1 242.54C108.48 243.17 109.59 242.38 109.59 240.78C109.559 239.953 109.314 239.148 108.877 238.445C108.44 237.741 107.828 237.164 107.1 236.77V236.77Z" fill="#473F47"/>
<path fill-rule="evenodd" clip-rule="evenodd" d="M107.69 235.57C107.683 235.405 107.621 235.246 107.514 235.12C107.407 234.993 107.262 234.905 107.1 234.87C107.038 234.855 106.974 234.853 106.912 234.863C106.849 234.873 106.789 234.895 106.735 234.929C106.681 234.962 106.634 235.006 106.597 235.058C106.56 235.11 106.534 235.168 106.52 235.23C106.515 235.273 106.515 235.317 106.52 235.36V239.56C106.527 239.725 106.589 239.884 106.696 240.01C106.803 240.137 106.948 240.225 107.11 240.26C107.173 240.273 107.238 240.274 107.301 240.262C107.365 240.25 107.425 240.226 107.479 240.19C107.533 240.155 107.579 240.109 107.615 240.056C107.652 240.003 107.677 239.943 107.69 239.88C107.695 239.844 107.695 239.807 107.69 239.77V235.57ZM92.23 224.8C92.2258 224.635 92.1649 224.476 92.0575 224.35C91.95 224.225 91.8026 224.14 91.64 224.11C91.5796 224.095 91.5168 224.092 91.4553 224.102C91.3939 224.112 91.3349 224.133 91.2819 224.166C91.2288 224.198 91.1828 224.241 91.1464 224.292C91.1101 224.342 91.0841 224.399 91.07 224.46C91.065 224.503 91.065 224.547 91.07 224.59V228.79C91.075 228.955 91.1348 229.113 91.2398 229.24C91.3449 229.366 91.4892 229.455 91.65 229.49C91.7117 229.505 91.7758 229.507 91.8385 229.497C91.9012 229.487 91.9612 229.465 92.0152 229.431C92.0691 229.398 92.1159 229.354 92.1527 229.302C92.1896 229.25 92.2159 229.192 92.23 229.13C92.235 229.087 92.235 229.043 92.23 229V224.8Z" fill="white"/>
<path fill-rule="evenodd" clip-rule="evenodd" d="M109.68 220.01L109.36 219.22L93.13 225.09L93.45 225.88L109.68 220.01ZM113.02 222.5L96.79 228.37L96.47 227.58L112.7 221.71L113.02 222.5ZM116.52 224.81L100.29 230.68L99.97 229.89L116.19 224.01L116.51 224.8L116.52 224.81ZM120.83 227.81L104.6 233.68L104.28 232.89L120.52 227.08L120.84 227.87L120.83 227.81ZM109.04 237.04L108.72 236.25L124.95 230.38L125.27 231.17L109.04 237.04Z" fill="url(#paint34_linear_5:29)"/>
<path fill-rule="evenodd" clip-rule="evenodd" d="M113.23 231.78L114.74 216.7L135.44 208.7L129.61 225.46L113.23 231.82V231.78ZM130.73 226.29L137.17 207.77C137.221 207.591 137.21 207.4 137.14 207.227C137.069 207.055 136.942 206.912 136.78 206.82C136.626 206.739 136.447 206.721 136.28 206.77L113.86 215.48C113.763 215.523 113.679 215.591 113.618 215.677C113.556 215.763 113.519 215.864 113.51 215.97L111.84 232.68C111.826 232.865 111.875 233.049 111.978 233.203C112.082 233.357 112.234 233.472 112.41 233.53C112.523 233.57 112.647 233.57 112.76 233.53L130.41 226.67C130.489 226.636 130.559 226.583 130.614 226.517C130.67 226.452 130.709 226.374 130.73 226.29V226.29Z" fill="white"/>
<path fill-rule="evenodd" clip-rule="evenodd" d="M130.87 209.41L126.92 227.01C126.901 227.103 126.914 227.199 126.958 227.283C127.002 227.367 127.073 227.433 127.16 227.47C127.225 227.498 127.299 227.5 127.366 227.476C127.433 227.452 127.488 227.403 127.52 227.34C127.524 227.317 127.524 227.293 127.52 227.27L131.52 209.66C131.535 209.569 131.519 209.476 131.476 209.394C131.433 209.313 131.364 209.248 131.28 209.21C131.215 209.182 131.141 209.18 131.074 209.204C131.007 209.228 130.952 209.277 130.92 209.34C130.916 209.363 130.916 209.387 130.92 209.41H130.87ZM126.31 211.19C126.32 211.119 126.357 211.055 126.412 211.01C126.468 210.966 126.539 210.944 126.61 210.95H126.68C126.766 210.985 126.838 211.046 126.885 211.126C126.932 211.205 126.951 211.298 126.94 211.39L124.14 228.53C124.137 228.566 124.128 228.6 124.112 228.632C124.096 228.664 124.074 228.692 124.047 228.715C124.02 228.739 123.989 228.756 123.955 228.767C123.921 228.778 123.885 228.783 123.85 228.78H123.77C123.682 228.745 123.609 228.682 123.562 228.6C123.515 228.518 123.497 228.423 123.51 228.33L126.31 211.19ZM118.31 214.33L116.31 231.17C116.301 231.263 116.324 231.356 116.374 231.434C116.425 231.512 116.501 231.571 116.59 231.6C116.659 231.619 116.733 231.611 116.796 231.578C116.859 231.544 116.907 231.488 116.93 231.42C116.935 231.397 116.935 231.373 116.93 231.35L118.93 214.51C118.939 214.417 118.916 214.324 118.866 214.246C118.815 214.168 118.739 214.109 118.65 214.08C118.581 214.061 118.507 214.069 118.444 214.102C118.381 214.136 118.333 214.192 118.31 214.26C118.305 214.283 118.305 214.307 118.31 214.33ZM119.9 229.75C119.89 229.843 119.911 229.937 119.959 230.016C120.008 230.096 120.082 230.157 120.17 230.19C120.205 230.204 120.242 230.21 120.279 230.209C120.316 230.207 120.353 230.197 120.386 230.18C120.419 230.163 120.449 230.139 120.472 230.11C120.495 230.08 120.511 230.046 120.52 230.01L122.92 213.01C122.932 212.917 122.912 212.822 122.863 212.742C122.814 212.662 122.739 212.601 122.65 212.57C122.578 212.551 122.502 212.56 122.437 212.595C122.372 212.631 122.323 212.69 122.3 212.76C122.299 212.777 122.299 212.793 122.3 212.81L119.9 229.75Z" fill="white"/>
<path d="M64.52 130.93C64.3485 131.22 64.2205 131.533 64.14 131.86C63.9073 132.407 63.7874 132.995 63.7874 133.59C63.7874 134.184 63.9073 134.773 64.14 135.32C64.3083 135.759 64.5408 136.17 64.83 136.54C65.1276 136.912 65.5444 137.17 66.01 137.27C66.0595 137.28 66.1105 137.28 66.16 137.27C66.2019 137.251 66.2369 137.22 66.26 137.18C66.3799 136.875 66.3799 136.535 66.26 136.23C66.0704 135.029 66.1593 133.801 66.52 132.64C66.661 132.214 66.7385 131.769 66.75 131.32C66.7649 131.075 66.6943 130.832 66.5502 130.633C66.4062 130.435 66.1975 130.292 65.96 130.23C65.6773 130.187 65.3882 130.231 65.131 130.356C64.8738 130.481 64.6607 130.681 64.52 130.93V130.93Z" fill="#4FC3F7"/>
<path fill-rule="evenodd" clip-rule="evenodd" d="M80.56 191.79L114.52 215.66L113.99 217.34L80.87 193.57L80.56 191.79Z" fill="white"/>
<path fill-rule="evenodd" clip-rule="evenodd" d="M88.61 198.88L91.77 217.96L92.43 218.16L89.84 199.6L88.61 198.88V198.88ZM94.76 203.18L96.48 221.53L97.14 221.75L95.99 203.91L94.76 203.18V203.18ZM100.79 207.19L100.99 224.66L101.65 224.88L102.02 207.94L100.79 207.19ZM105.29 211.01L106.13 228.78L106.79 229L106.52 211.75L105.29 211.01Z" fill="white"/>
<path fill-rule="evenodd" clip-rule="evenodd" d="M112.26 231.78L87.66 214L87.49 215.62L112.41 233.53L112.26 231.78V231.78Z" fill="white"/>
<path d="M45.13 88.95V105.88C45.1168 106.655 45.2563 107.425 45.5406 108.146C45.8249 108.866 46.2485 109.524 46.7871 110.081C47.3257 110.639 47.9688 111.084 48.6796 111.393C49.3905 111.701 50.1552 111.867 50.93 111.88H63.93L69.78 120.35V111.88H80.78C81.5565 111.87 82.3234 111.706 83.0365 111.399C83.7497 111.091 84.3951 110.646 84.9358 110.088C85.4765 109.531 85.9019 108.872 86.1875 108.15C86.473 107.428 86.6132 106.656 86.6 105.88V88.88C86.6214 87.3133 86.0208 85.802 84.9299 84.6773C83.8389 83.5526 82.3466 82.9063 80.78 82.88H50.94C50.1587 82.8929 49.3877 83.0607 48.6717 83.3735C47.9556 83.6864 47.3087 84.1381 46.7684 84.7026C46.228 85.2671 45.805 85.9332 45.5238 86.6622C45.2426 87.3913 45.1087 88.1689 45.13 88.95V88.95Z" fill="white"/>
<path d="M63.52 109.7L63.63 106.82C62.1491 106.75 60.7207 106.25 59.52 105.38L60.24 103.52C61.3703 104.35 62.7194 104.83 64.12 104.9C66.12 104.97 67.43 103.9 67.49 102.26C67.55 100.62 66.49 99.7 64.49 98.76C61.74 97.52 60.06 96.14 60.16 93.69C60.2041 92.5459 60.6771 91.4602 61.4848 90.6487C62.2926 89.8373 63.3761 89.3594 64.52 89.31L64.62 86.43L66.32 86.5L66.22 89.24C67.4721 89.3096 68.6848 89.7024 69.74 90.38L69 92.25C67.9707 91.5534 66.7625 91.1681 65.52 91.14C63.41 91.05 62.52 92.32 62.52 93.45C62.46 94.92 63.45 95.69 65.77 96.81C68.56 98.11 69.92 99.64 69.77 102.15C69.7188 103.341 69.2306 104.472 68.3987 105.326C67.5668 106.18 66.4494 106.698 65.26 106.78L65.15 109.72L63.52 109.7Z" fill="#4FC3F7"/>
</g>
<defs>
<linearGradient id="paint0_linear_5:29" x1="92.84" y1="186.96" x2="95.93" y2="390.24" gradientUnits="userSpaceOnUse">
<stop offset="0.01"/>
<stop offset="0.08" stop-opacity="0.69"/>
<stop offset="0.21" stop-opacity="0.32"/>
<stop offset="1" stop-opacity="0"/>
</linearGradient>
<linearGradient id="paint1_linear_5:29" x1="-260.626" y1="40.8687" x2="-261.504" y2="42.1457" gradientUnits="userSpaceOnUse">
<stop offset="0.01"/>
<stop offset="0.08" stop-opacity="0.69"/>
<stop offset="0.21" stop-opacity="0.32"/>
<stop offset="1" stop-opacity="0"/>
</linearGradient>
<linearGradient id="paint2_linear_5:29" x1="236749" y1="-25937.4" x2="196569" y2="65052.9" gradientUnits="userSpaceOnUse">
<stop offset="0.01"/>
<stop offset="0.08" stop-opacity="0.69"/>
<stop offset="0.21" stop-opacity="0.32"/>
<stop offset="1" stop-opacity="0"/>
</linearGradient>
<linearGradient id="paint3_linear_5:29" x1="151999" y1="-14067.6" x2="149830" y2="3873.74" gradientUnits="userSpaceOnUse">
<stop offset="0.01"/>
<stop offset="0.08" stop-opacity="0.69"/>
<stop offset="0.21" stop-opacity="0.32"/>
<stop offset="1" stop-opacity="0"/>
</linearGradient>
<linearGradient id="paint4_linear_5:29" x1="107388" y1="-9881.4" x2="107949" y2="2839.97" gradientUnits="userSpaceOnUse">
<stop offset="0.01"/>
<stop offset="0.08" stop-opacity="0.69"/>
<stop offset="0.21" stop-opacity="0.32"/>
<stop offset="1" stop-opacity="0"/>
</linearGradient>
<linearGradient id="paint5_linear_5:29" x1="54173.1" y1="-5227.89" x2="54548" y2="1096.68" gradientUnits="userSpaceOnUse">
<stop offset="0.01"/>
<stop offset="0.08" stop-opacity="0.69"/>
<stop offset="0.21" stop-opacity="0.32"/>
<stop offset="1" stop-opacity="0"/>
</linearGradient>
<linearGradient id="paint6_linear_5:29" x1="25084.7" y1="-1098.01" x2="25140.9" y2="-612.314" gradientUnits="userSpaceOnUse">
<stop offset="0.01"/>
<stop offset="0.08" stop-opacity="0.69"/>
<stop offset="0.21" stop-opacity="0.32"/>
<stop offset="1" stop-opacity="0"/>
</linearGradient>
<linearGradient id="paint7_linear_5:29" x1="105100" y1="-33191.4" x2="98777.3" y2="39225.9" gradientUnits="userSpaceOnUse">
<stop offset="0.01"/>
<stop offset="0.08" stop-opacity="0.69"/>
<stop offset="0.21" stop-opacity="0.32"/>
<stop offset="1" stop-opacity="0"/>
</linearGradient>
<linearGradient id="paint8_linear_5:29" x1="10106.7" y1="16357.1" x2="2176.32" y2="6341.99" gradientUnits="userSpaceOnUse">
<stop offset="0.01"/>
<stop offset="0.08" stop-opacity="0.69"/>
<stop offset="0.21" stop-opacity="0.32"/>
<stop offset="1" stop-opacity="0"/>
</linearGradient>
<linearGradient id="paint9_linear_5:29" x1="18654.7" y1="-4895.61" x2="18821.3" y2="-2257.35" gradientUnits="userSpaceOnUse">
<stop offset="0.01"/>
<stop offset="0.08" stop-opacity="0.69"/>
<stop offset="0.21" stop-opacity="0.32"/>
<stop offset="1" stop-opacity="0"/>
</linearGradient>
<linearGradient id="paint10_linear_5:29" x1="176.12" y1="113.88" x2="340.88" y2="279.69" gradientUnits="userSpaceOnUse">
<stop stop-color="white" stop-opacity="0"/>
<stop offset="0.54" stop-color="white"/>
</linearGradient>
<linearGradient id="paint11_linear_5:29" x1="198.47" y1="215.82" x2="193.68" y2="118.23" gradientUnits="userSpaceOnUse">
<stop offset="0.01"/>
<stop offset="0.13" stop-opacity="0.69"/>
<stop offset="0.25" stop-opacity="0.32"/>
<stop offset="1" stop-opacity="0"/>
</linearGradient>
<linearGradient id="paint12_linear_5:29" x1="31730.9" y1="5842.3" x2="31309.4" y2="8060.99" gradientUnits="userSpaceOnUse">
<stop offset="0.01"/>
<stop offset="0.13" stop-opacity="0.69"/>
<stop offset="0.25" stop-opacity="0.32"/>
<stop offset="1" stop-opacity="0"/>
</linearGradient>
<linearGradient id="paint13_linear_5:29" x1="2262.78" y1="5883.82" x2="2754.73" y2="5883.82" gradientUnits="userSpaceOnUse">
<stop offset="0.01"/>
<stop offset="0.08" stop-opacity="0.69"/>
<stop offset="0.21" stop-opacity="0.32"/>
<stop offset="1" stop-opacity="0"/>
</linearGradient>
<linearGradient id="paint14_linear_5:29" x1="820.568" y1="5762.65" x2="891.801" y2="5762.65" gradientUnits="userSpaceOnUse">
<stop offset="0.01"/>
<stop offset="0.08" stop-opacity="0.69"/>
<stop offset="0.21" stop-opacity="0.32"/>
<stop offset="1" stop-opacity="0"/>
</linearGradient>
<linearGradient id="paint15_linear_5:29" x1="824.181" y1="4220.89" x2="1563.75" y2="3379.92" gradientUnits="userSpaceOnUse">
<stop offset="0.01"/>
<stop offset="0.08" stop-opacity="0.69"/>
<stop offset="0.21" stop-opacity="0.32"/>
<stop offset="1" stop-opacity="0"/>
</linearGradient>
<linearGradient id="paint16_linear_5:29" x1="863.094" y1="825.473" x2="975.525" y2="1222.84" gradientUnits="userSpaceOnUse">
<stop stop-color="white" stop-opacity="0"/>
<stop offset="0.54" stop-color="white"/>
</linearGradient>
<linearGradient id="paint17_linear_5:29" x1="354.42" y1="307.127" x2="360.654" y2="361.675" gradientUnits="userSpaceOnUse">
<stop stop-color="white" stop-opacity="0"/>
<stop offset="0.54" stop-color="white"/>
</linearGradient>
<linearGradient id="paint18_linear_5:29" x1="362.299" y1="311.455" x2="368.431" y2="365.595" gradientUnits="userSpaceOnUse">
<stop stop-color="white" stop-opacity="0"/>
<stop offset="0.54" stop-color="white"/>
</linearGradient>
<linearGradient id="paint19_linear_5:29" x1="339.323" y1="408.981" x2="372.741" y2="526.523" gradientUnits="userSpaceOnUse">
<stop stop-color="white" stop-opacity="0"/>
<stop offset="0.54" stop-color="white"/>
</linearGradient>
<linearGradient id="paint20_linear_5:29" x1="293.653" y1="749.927" x2="480.75" y2="926.667" gradientUnits="userSpaceOnUse">
<stop stop-color="white" stop-opacity="0"/>
<stop offset="0.54" stop-color="white"/>
</linearGradient>
<linearGradient id="paint21_linear_5:29" x1="2995.09" y1="3706.67" x2="3820.19" y2="5856.07" gradientUnits="userSpaceOnUse">
<stop stop-color="white" stop-opacity="0"/>
<stop offset="0.54" stop-color="white"/>
</linearGradient>
<linearGradient id="paint22_linear_5:29" x1="4847.47" y1="4492.28" x2="5649.8" y2="7285.73" gradientUnits="userSpaceOnUse">
<stop stop-color="white" stop-opacity="0"/>
<stop offset="0.54" stop-color="white"/>
</linearGradient>
<linearGradient id="paint23_linear_5:29" x1="2933.73" y1="3580.69" x2="3540.94" y2="5658.57" gradientUnits="userSpaceOnUse">
<stop stop-color="white" stop-opacity="0"/>
<stop offset="0.54" stop-color="white"/>
</linearGradient>
<linearGradient id="paint24_linear_5:29" x1="1851.57" y1="3190.76" x2="2569.62" y2="4886.9" gradientUnits="userSpaceOnUse">
<stop stop-color="white" stop-opacity="0"/>
<stop offset="0.54" stop-color="white"/>
</linearGradient>
<linearGradient id="paint25_linear_5:29" x1="599.699" y1="4587.75" x2="1656.63" y2="5024.7" gradientUnits="userSpaceOnUse">
<stop stop-color="white" stop-opacity="0"/>
<stop offset="0.54" stop-color="white"/>
</linearGradient>
<linearGradient id="paint26_linear_5:29" x1="1339.32" y1="4366.02" x2="2647.75" y2="6121.18" gradientUnits="userSpaceOnUse">
<stop stop-color="white" stop-opacity="0"/>
<stop offset="0.54" stop-color="white"/>
</linearGradient>
<linearGradient id="paint27_linear_5:29" x1="680.247" y1="863.496" x2="792.527" y2="1260.68" gradientUnits="userSpaceOnUse">
<stop stop-color="white" stop-opacity="0"/>
<stop offset="0.54" stop-color="white"/>
</linearGradient>
<linearGradient id="paint28_linear_5:29" x1="275.017" y1="307.37" x2="281.124" y2="361.377" gradientUnits="userSpaceOnUse">
<stop stop-color="white" stop-opacity="0"/>
<stop offset="0.54" stop-color="white"/>
</linearGradient>
<linearGradient id="paint29_linear_5:29" x1="282.897" y1="313.457" x2="289.171" y2="368.199" gradientUnits="userSpaceOnUse">
<stop stop-color="white" stop-opacity="0"/>
<stop offset="0.54" stop-color="white"/>
</linearGradient>
<linearGradient id="paint30_linear_5:29" x1="263.576" y1="417.652" x2="297.138" y2="535.443" gradientUnits="userSpaceOnUse">
<stop stop-color="white" stop-opacity="0"/>
<stop offset="0.54" stop-color="white"/>
</linearGradient>
<linearGradient id="paint31_linear_5:29" x1="780.805" y1="850.64" x2="893.167" y2="1248.09" gradientUnits="userSpaceOnUse">
<stop stop-color="white" stop-opacity="0"/>
<stop offset="0.54" stop-color="white"/>
</linearGradient>
<linearGradient id="paint32_linear_5:29" x1="317.315" y1="316.768" x2="323.686" y2="371.901" gradientUnits="userSpaceOnUse">
<stop stop-color="white" stop-opacity="0"/>
<stop offset="0.54" stop-color="white"/>
</linearGradient>
<linearGradient id="paint33_linear_5:29" x1="325.375" y1="320.216" x2="331.514" y2="374.35" gradientUnits="userSpaceOnUse">
<stop stop-color="white" stop-opacity="0"/>
<stop offset="0.54" stop-color="white"/>
</linearGradient>
<linearGradient id="paint34_linear_5:29" x1="4399.89" y1="1992.13" x2="4553.55" y2="3207.71" gradientUnits="userSpaceOnUse">
<stop stop-color="white" stop-opacity="0"/>
<stop offset="0.54" stop-color="white"/>
</linearGradient>
<clipPath id="clip0_5:29">
<rect width="374.24" height="306.74" fill="white"/>
</clipPath>
</defs>
</svg>
