<svg width="423" height="312" viewBox="0 0 423 312" fill="none" xmlns="http://www.w3.org/2000/svg">
<g filter="url(#filter0_d_5:188)">
<g clip-path="url(#clip0_5:188)">
<path opacity="0.18" d="M64.502 21.0719C44.7437 31.4559 27.2391 46.38 17.2473 65.3087C7.25543 84.2374 5.55256 105.285 4.50079 126.053C3.44901 149.335 3.57422 172.618 9.70957 195.202C15.3942 215.993 26.0872 235.318 38.0824 253.641C46.8973 267.098 56.8391 280.509 71.0631 289.1C81.4952 294.947 93.0271 298.897 105.045 300.742C145.637 308.046 187.686 302.694 224.672 285.515C252.219 272.663 276.159 253.501 305.233 244.398C330.751 236.412 359.399 236.389 382.388 223.444C411.036 207.146 424.159 172.362 417.147 141.838C410.135 111.315 385.468 85.9603 355.568 71.7114C338.614 63.6557 320.283 58.9992 303.205 51.4789C286.126 43.9586 270.524 33.6678 253.871 25.3093C194.371 -4.60872 124.453 -10.4526 64.502 21.0719Z" fill="#4FC3F7"/>
<path d="M268.496 105.563L271.827 106.867C273.043 107.175 274.089 107.899 274.757 108.892C275.105 109.942 275.042 111.071 274.581 112.082C274.131 113.456 273.605 114.829 273.029 116.18C272.278 117.973 271.401 119.742 270.825 121.581C269.697 126.234 269.493 131.04 270.224 135.76C270.224 137.297 268.12 138.089 266.493 138.298C263.423 138.899 260.239 138.746 257.252 137.856C256.976 137.784 256.719 137.657 256.501 137.483C256.229 137.16 256.104 136.751 256.15 136.343C255.975 133.805 255.975 131.174 255.599 128.846C255.45 127.575 255.173 126.32 254.773 125.097C254.489 123.898 254.272 122.685 254.122 121.465C253.897 120.487 253.571 119.533 253.396 118.555C253.179 117.568 253.257 116.546 253.621 115.598C254.072 114.573 254.698 113.619 255.249 112.641C255.838 111.577 256.357 110.481 256.801 109.358C257.041 108.539 257.404 107.755 257.878 107.03C258.477 106.369 259.225 105.839 260.069 105.476C260.913 105.114 261.832 104.929 262.761 104.934C264.699 104.755 266.656 104.97 268.496 105.563V105.563Z" fill="#FFBBAB"/>
<path d="M247.987 93.5258C247.038 92.4183 246.27 91.1866 245.708 89.8705C245.078 88.187 244.69 86.4333 244.556 84.6552C244.454 84.0163 244.505 83.3643 244.706 82.746C245.032 81.9079 245.833 81.2792 246.083 80.4178C246.12 80.3278 246.12 80.2284 246.083 80.1384C246.083 80.1384 245.958 79.9521 245.758 79.9521L244.706 79.696C244.882 78.9005 244.74 78.0724 244.305 77.3678C244.178 77.1112 243.973 76.8951 243.714 76.7461C243.456 76.5971 243.157 76.5218 242.853 76.5296C242.202 76.5296 241.876 77.2979 241.325 77.6472C240.774 77.9964 240.173 78.043 239.698 78.3922C239.192 78.8994 238.906 79.5631 238.896 80.2548C238.862 81.9304 239.133 83.5992 239.698 85.1907C240.057 87.0488 240.542 88.8839 241.15 90.6854C243.076 96.2404 246.156 101.39 250.215 105.842C251.768 107.542 257.728 114.247 260.082 112.524C263.413 110.196 261.234 106.355 258.93 104.515C254.814 101.281 251.139 97.5903 247.987 93.5258V93.5258Z" fill="#FFBBAB"/>
<path d="M261.985 104.445C260.858 106.052 259.756 107.705 258.73 109.381C258.534 109.63 258.393 109.913 258.316 110.212C258.239 110.512 258.226 110.823 258.279 111.128C258.466 111.523 258.805 111.839 259.23 112.012C260.105 112.376 261.064 112.528 262.018 112.454C262.972 112.381 263.891 112.085 264.69 111.593C266.263 110.564 267.657 109.315 268.822 107.891C269.45 107.104 270.232 106.433 271.126 105.912C271.58 105.66 272.099 105.527 272.628 105.527C273.157 105.527 273.676 105.66 274.131 105.912C274.349 106.042 274.535 106.213 274.676 106.414C274.818 106.616 274.912 106.843 274.952 107.08C274.993 107.318 274.978 107.561 274.91 107.793C274.842 108.025 274.721 108.241 274.556 108.427C274.556 107.682 273.58 107.216 272.803 107.402C272.049 107.69 271.423 108.207 271.025 108.869C270.422 109.668 269.87 110.5 269.373 111.36C268.972 111.99 268.676 112.673 268.496 113.386C268.445 114.269 268.585 115.152 268.907 115.984C269.23 116.816 269.729 117.579 270.374 118.229C270.839 118.744 271.211 119.326 271.476 119.952C271.667 120.956 271.581 121.99 271.226 122.955C270.312 127.058 270.083 131.267 270.55 135.434C270.667 135.834 270.68 136.253 270.589 136.658C270.497 137.062 270.304 137.441 270.024 137.763C269.54 138.114 268.934 138.288 268.321 138.252C265.441 138.252 262.586 137.646 259.681 137.716C257.901 137.894 256.112 137.98 254.322 137.972C254.191 137.987 254.058 137.971 253.936 137.924C253.814 137.878 253.707 137.804 253.624 137.708C253.541 137.613 253.486 137.499 253.464 137.378C253.441 137.258 253.452 137.133 253.496 137.018C254.298 132.398 254.424 127.699 253.871 123.048C253.269 120.939 252.9 118.778 252.77 116.599C252.746 116.12 252.841 115.642 253.045 115.202C253.276 114.777 253.571 114.385 253.922 114.038C255.803 111.928 257.155 109.454 257.878 106.797" fill="white"/>
<path opacity="0.1" d="M269.272 125.982C269.291 126.37 269.213 126.757 269.043 127.113C268.874 127.468 268.618 127.783 268.296 128.031C268.088 128.117 267.887 128.219 267.695 128.333C267.319 128.659 267.369 129.218 267.294 129.684C266.973 130.539 266.481 131.329 265.842 132.012C265.539 132.375 265.375 132.821 265.375 133.281C265.375 133.74 265.539 134.187 265.842 134.55C266.292 134.969 267.044 135.039 267.419 135.528C267.795 136.017 267.419 137.6 268.196 138.089C268.448 138.188 268.731 138.201 268.993 138.124C269.254 138.047 269.478 137.886 269.623 137.67C269.892 137.229 270.038 136.733 270.049 136.226C270.633 130.995 271.167 125.741 271.651 120.464C271.718 120.188 271.71 119.9 271.627 119.628C271.543 119.355 271.388 119.106 271.176 118.904C270.8 118.415 270.299 117.484 269.748 117.228C269.122 118.089 269.598 119.952 269.598 120.953C269.498 122.652 269.423 124.329 269.272 125.982V125.982Z" fill="#020202"/>
<path d="M255.549 95.3652C255.221 95.7586 255.005 96.2234 254.923 96.7156C254.986 97.0631 255.122 97.3955 255.324 97.6935C255.684 98.4274 255.896 99.2166 255.95 100.022C255.928 100.626 256.093 101.224 256.426 101.745C256.718 102.003 257.065 102.2 257.445 102.325C257.824 102.449 258.228 102.497 258.629 102.466H260.483C260.704 102.409 260.938 102.409 261.159 102.466C261.363 102.564 261.529 102.719 261.635 102.909C262.21 104.166 262.557 105.504 262.661 106.867C262.713 107.098 262.825 107.314 262.987 107.495C263.115 107.665 263.287 107.801 263.488 107.891C264.791 108.369 266.241 108.369 267.545 107.891C267.88 107.797 268.171 107.6 268.371 107.332C268.499 106.993 268.499 106.624 268.371 106.285C268.229 105.347 268.011 104.421 267.72 103.514C267.197 102.324 266.925 101.051 266.918 99.7656C266.918 98.6248 267.595 97.5771 267.795 96.4595C267.941 95.2794 267.677 94.0869 267.042 93.0563C266.406 92.0258 265.433 91.2113 264.264 90.732C263.269 90.3667 262.199 90.2147 261.132 90.2873C260.066 90.3598 259.03 90.6551 258.104 91.1511C257.427 91.477 256.877 91.64 256.551 92.3152C256.225 92.9904 256.15 94.4106 255.549 95.3652V95.3652Z" fill="#FFBBAB"/>
<path d="M255.725 88.4271C255.615 87.9997 255.557 87.5625 255.549 87.1232C255.549 85.6332 256.476 83.9335 258.054 83.887C259.18 83.887 260.182 84.6786 261.334 84.6786C261.809 84.619 262.277 84.5256 262.736 84.3992C263.94 84.143 265.189 84.143 266.393 84.3992C268.992 84.8268 271.31 86.1798 272.853 88.1709C273.622 89.1863 274.054 90.3879 274.099 91.6286C274.143 92.8693 273.798 94.0951 273.104 95.1557C272.278 96.3198 271 97.158 270.124 98.2989C269.703 99.0112 269.244 99.7028 268.747 100.371C268.296 100.86 267.244 101.652 266.493 101.302C265.741 100.953 265.691 99.8122 265.166 99.3233C265.681 98.9447 266.174 98.5405 266.643 98.1126C266.871 97.8955 267.029 97.6236 267.1 97.3275C267.171 97.0313 267.151 96.7226 267.044 96.4362C266.743 95.8775 265.716 95.7611 265.466 96.4362C265.544 95.6522 265.426 94.862 265.122 94.1271C264.818 93.3922 264.336 92.7324 263.713 92.1988C263.533 91.9911 263.312 91.8173 263.062 91.6866C262.789 91.6398 262.509 91.6398 262.236 91.6866H259.932C258.604 91.6866 257.953 92.0359 257.002 90.9881C256.349 90.249 255.91 89.3677 255.725 88.4271V88.4271Z" fill="#FC682D"/>
<path d="M263.237 102.699C263.445 102.682 263.651 102.74 263.813 102.862C263.947 103.022 264.017 103.219 264.014 103.421C264.114 104.451 264.114 105.487 264.014 106.518C263.986 106.791 263.91 107.059 263.788 107.309C263.716 107.431 263.611 107.533 263.484 107.607C263.357 107.68 263.211 107.722 263.062 107.728C262.736 107.728 262.461 107.472 262.11 107.402C261.927 107.366 261.738 107.367 261.556 107.408C261.374 107.448 261.204 107.526 261.059 107.635C260.776 107.862 260.524 108.12 260.307 108.403C259.752 109.054 259.141 109.661 258.479 110.219C258.925 108.805 259.601 107.463 260.483 106.238C260.683 105.885 260.998 105.599 261.384 105.423C261.685 105.423 262.06 105.423 262.261 105.121C262.461 104.818 262.261 104.236 262.035 103.84C261.81 103.444 261.234 102.885 261.584 102.606C261.935 102.327 262.937 102.676 263.237 102.699V102.699Z" fill="#E0A194"/>
<path d="M287.378 97.2045C288.367 96.3438 289.287 95.4178 290.133 94.4339C292.551 91.6248 293.875 88.137 293.889 84.5388C293.801 84.1472 293.801 83.743 293.889 83.3514C293.94 83.161 294.051 82.9888 294.207 82.8564C294.363 82.7239 294.557 82.637 294.765 82.6063C294.948 82.6296 295.134 82.6296 295.316 82.6063C295.592 82.6063 295.717 82.2571 295.942 82.0708C296.13 81.9613 296.347 81.9032 296.569 81.9032C296.79 81.9032 297.007 81.9613 297.195 82.0708C297.578 82.2957 297.91 82.5884 298.171 82.9323C298.572 83.4445 298.973 83.98 299.323 84.5155C299.64 84.9257 299.831 85.4088 299.874 85.9125C299.768 86.7246 299.329 87.4672 298.647 87.9846C297.871 87.9846 297.27 89.9171 297.069 90.3129C296.669 91.3606 296.218 92.4083 295.717 93.4094C292.731 99.4625 288.314 104.811 282.795 109.055C280.942 110.476 273.93 116.04 271.827 114.061C268.947 111.221 271.827 107.798 274.331 106.331C279.075 103.81 283.458 100.744 287.378 97.2045V97.2045Z" fill="#FFBBAB"/>
<path d="M257.102 97.7866C257.56 97.7517 258.021 97.7517 258.479 97.7866C258.507 97.7742 258.537 97.7678 258.567 97.7678C258.597 97.7678 258.627 97.7742 258.655 97.7866C258.905 98.4417 258.905 99.157 258.655 99.8122C258.559 100.064 258.395 100.288 258.179 100.464C258.06 100.537 257.921 100.576 257.778 100.576C257.636 100.576 257.496 100.537 257.377 100.464C257.189 100.318 257.05 100.124 256.977 99.9053C256.627 99.2493 256.479 98.5158 256.551 97.7866C256.831 97.7284 257.122 97.7284 257.402 97.7866" fill="white"/>
<path d="M254.147 99.3698H253.922C253.936 99.3549 253.953 99.343 253.972 99.3349C253.992 99.3267 254.013 99.3225 254.034 99.3225C254.056 99.3225 254.077 99.3267 254.096 99.3349C254.116 99.343 254.133 99.3549 254.147 99.3698Z" fill="#4FC3F7"/>
<path d="M295.867 93.6656C295.787 94.9244 295.401 96.15 294.74 97.2511C290.739 105.058 283.901 111.3 275.433 114.876C274.947 115.022 274.508 115.278 274.156 115.621C273.901 115.948 273.722 116.321 273.63 116.715C271.702 123.7 272.127 130.825 270.75 137.809C270.704 138.434 270.43 139.025 269.974 139.486C269.313 139.921 268.494 140.096 267.695 139.975H266.067C262.2 139.78 258.347 139.399 254.523 138.834C253.85 138.802 253.216 138.536 252.745 138.089C252.421 137.533 252.332 136.886 252.494 136.273C252.674 131.476 252.465 126.674 251.868 121.907C251.655 119.583 251.655 117.247 251.868 114.923C252.182 113.761 252.182 112.545 251.868 111.384C251.724 111.045 251.521 110.73 251.267 110.452C250.173 109.483 249.019 108.573 247.811 107.728C246.149 105.973 244.964 103.874 244.355 101.605C243.203 98.392 242.001 95.2023 240.9 91.9893C240.073 89.661 241.375 88.5667 243.254 87.682C243.93 87.356 244.681 87.0534 245.457 86.7274C246.122 89.2157 247.079 91.6283 248.312 93.9217C249.53 96.187 251.496 98.0307 253.922 99.1836C253.882 99.1836 253.843 99.1983 253.815 99.2245C253.787 99.2507 253.771 99.2862 253.771 99.3233C253.771 99.4104 253.794 99.4962 253.838 99.5733C253.881 99.6504 253.944 99.7164 254.022 99.7656C255.7 101.209 257.402 102.629 259.03 104.096C259.344 104.4 259.73 104.631 260.157 104.771C260.658 104.771 262.386 104.352 262.311 105.214C262.322 105.26 262.322 105.308 262.311 105.353C262.311 105.656 262.01 105.889 261.96 106.192C261.951 106.375 262.001 106.558 262.104 106.715C262.206 106.873 262.357 106.998 262.536 107.076C262.892 107.242 263.293 107.307 263.688 107.263C264.125 107.238 264.556 107.152 264.965 107.006C265.641 106.75 266.192 106.308 266.843 106.005C267.837 105.66 268.92 105.603 269.949 105.842C271.071 105.921 272.2 105.858 273.304 105.656C276.5 104.963 279.455 103.53 281.894 101.489C285.303 98.4159 288.466 95.1166 291.36 91.6167C291.683 91.2137 292.103 90.8867 292.587 90.6622C292.996 90.5365 293.435 90.5224 293.852 90.6214C294.269 90.7204 294.647 90.9285 294.941 91.2209C295.275 91.5429 295.53 91.9278 295.69 92.3496C295.85 92.7714 295.91 93.2202 295.867 93.6656V93.6656Z" fill="white"/>
<path d="M295.867 93.6656C295.787 94.9244 295.401 96.15 294.74 97.2511C290.739 105.058 283.901 111.3 275.433 114.876C274.947 115.022 274.508 115.278 274.156 115.621C273.901 115.948 273.722 116.321 273.63 116.715C271.702 123.7 272.127 130.825 270.75 137.809C270.704 138.434 270.43 139.025 269.974 139.486C269.313 139.921 268.494 140.096 267.695 139.975H266.067C262.2 139.78 258.347 139.399 254.523 138.834C253.85 138.802 253.216 138.536 252.745 138.089C252.421 137.533 252.332 136.886 252.494 136.273C252.674 131.476 252.465 126.674 251.868 121.907C251.655 119.583 251.655 117.247 251.868 114.923C252.182 113.761 252.182 112.545 251.868 111.384C251.724 111.045 251.521 110.73 251.267 110.452C250.173 109.483 249.019 108.573 247.811 107.728C246.149 105.973 244.964 103.874 244.355 101.605C243.203 98.392 242.001 95.2023 240.9 91.9893C240.073 89.661 241.375 88.5667 243.254 87.682C243.93 87.356 244.681 87.0534 245.457 86.7274C246.122 89.2157 247.079 91.6283 248.312 93.9217C249.53 96.187 251.496 98.0307 253.922 99.1836C253.882 99.1836 253.843 99.1983 253.815 99.2245C253.787 99.2507 253.771 99.2862 253.771 99.3233C253.771 99.4104 253.794 99.4962 253.838 99.5733C253.881 99.6504 253.944 99.7164 254.022 99.7656C255.7 101.209 257.402 102.629 259.03 104.096C259.344 104.4 259.73 104.631 260.157 104.771C260.658 104.771 262.386 104.352 262.311 105.214C262.322 105.26 262.322 105.308 262.311 105.353C262.311 105.656 262.01 105.889 261.96 106.192C261.951 106.375 262.001 106.558 262.104 106.715C262.206 106.873 262.357 106.998 262.536 107.076C262.892 107.242 263.293 107.307 263.688 107.263C264.125 107.238 264.556 107.152 264.965 107.006C265.641 106.75 266.192 106.308 266.843 106.005C267.837 105.66 268.92 105.603 269.949 105.842C271.071 105.921 272.2 105.858 273.304 105.656C276.5 104.963 279.455 103.53 281.894 101.489C285.303 98.4159 288.466 95.1166 291.36 91.6167C291.683 91.2137 292.103 90.8867 292.587 90.6622C292.996 90.5365 293.435 90.5224 293.852 90.6214C294.269 90.7204 294.647 90.9285 294.941 91.2209C295.275 91.5429 295.53 91.9278 295.69 92.3496C295.85 92.7714 295.91 93.2202 295.867 93.6656V93.6656Z" fill="url(#paint0_linear_5:188)"/>
<path d="M251.918 111.29C251.718 111.011 251.543 110.708 251.317 110.452C250.223 109.483 249.069 108.573 247.861 107.728C246.199 105.973 245.014 103.874 244.405 101.605C243.254 98.392 242.052 95.2023 240.95 91.9893C240.123 89.661 241.425 88.5667 243.304 87.682C243.689 88.016 243.996 88.4202 244.205 88.8694C244.595 89.8564 244.872 90.8787 245.032 91.9194C245.649 94.2958 246.718 96.5507 248.187 98.5782C249.664 100.767 251.067 103.002 252.544 105.19C252.631 105.313 252.699 105.446 252.745 105.586C252.805 105.8 252.805 106.025 252.745 106.238C252.448 107.099 252.263 107.99 252.194 108.892C252.068 109.451 252.394 110.988 251.918 111.29V111.29Z" fill="url(#paint1_linear_5:188)"/>
<path d="M295.867 93.6656C295.787 94.9244 295.401 96.15 294.74 97.2512C290.739 105.058 283.901 111.3 275.433 114.876C274.947 115.022 274.508 115.278 274.156 115.621C273.901 115.948 273.722 116.321 273.63 116.715C271.702 123.7 272.127 130.825 270.75 137.809C270.704 138.434 270.43 139.025 269.974 139.486C269.313 139.921 268.494 140.097 267.695 139.975H266.067C265.597 139.944 265.145 139.791 264.765 139.532C264.403 139.211 264.173 138.783 264.114 138.322C263.775 135.68 263.649 133.018 263.738 130.359C263.791 129.02 263.501 127.688 262.891 126.473C262.282 125.259 261.37 124.197 260.232 123.374C259.655 123.117 259.123 122.78 258.655 122.373C258.434 122.16 258.311 121.877 258.311 121.581C258.311 121.286 258.434 121.002 258.655 120.79C258.892 120.643 259.17 120.562 259.456 120.557C261.087 120.45 262.71 120.248 264.314 119.952C265.925 119.675 267.365 118.843 268.346 117.623C269.172 116.459 269.348 114.969 270.249 113.852C271.477 112.697 273.031 111.89 274.732 111.523C280.63 109.383 285.85 105.891 289.907 101.372C291.71 99.3466 293.088 95.6912 295.316 94.1779C295.472 93.9833 295.658 93.8108 295.867 93.6656V93.6656Z" fill="url(#paint2_linear_5:188)"/>
<path d="M169.454 183.699C159.11 190.644 148.133 196.737 136.649 201.906L135.021 202.092H134.57C134.131 202.074 133.701 201.967 133.31 201.779C132.919 201.591 132.578 201.326 132.308 201.002C132.039 200.679 131.849 200.305 131.751 199.906C131.653 199.507 131.649 199.093 131.74 198.693C131.846 197.847 132.005 197.007 132.216 196.179C133.669 189.846 135.13 183.521 136.599 177.203C136.682 176.972 136.677 176.721 136.586 176.493C136.495 176.264 136.323 176.071 136.098 175.946L109.879 157.017C109.712 156.866 109.497 156.77 109.266 156.745C109.035 156.72 108.801 156.766 108.601 156.878C107.049 157.623 105.446 158.298 103.843 158.973C98.2089 161.441 92.7747 163.769 87.2154 166.097C86.8507 166.269 86.4512 166.367 86.0431 166.385C85.6349 166.403 85.2273 166.34 84.8468 166.202C84.4663 166.064 84.1215 165.852 83.8349 165.581C83.5483 165.311 83.3263 164.987 83.1836 164.631L82.858 163.932V163.56C83.107 161.689 83.458 159.832 83.9098 157.995C86.71 148.332 90.1473 138.838 94.2022 129.567C96.0985 124.578 99.8098 120.362 104.695 117.647C108.401 115.699 112.487 114.456 116.715 113.991C119.985 113.553 123.279 113.289 126.582 113.2H129.712C129.93 113.172 130.139 113.104 130.329 113C130.518 112.896 130.683 112.758 130.814 112.594C133.318 109.195 135.672 105.609 138.327 102.35C142.025 97.444 146.004 92.7264 150.247 88.2174C154.67 84.0291 159.317 80.0505 164.17 76.2968C169.078 72.2585 174.357 68.628 179.947 65.4471C188.34 60.9626 197.333 57.526 206.692 55.2261C208.495 54.7139 210.323 54.2715 212.151 53.8059L215.907 53.4333H216.584C217.46 53.5299 218.289 53.8573 218.972 54.3771C219.655 54.8968 220.165 55.5872 220.44 56.3669C220.452 56.4675 220.452 56.569 220.44 56.6696C220.61 57.438 220.727 58.2157 220.791 58.9979C221.158 63.085 221.074 67.1965 220.54 71.2678C219.994 78.6241 218.437 85.8851 215.907 92.8739C213.372 99.3756 210.36 105.708 206.892 111.826C204.157 117.052 200.921 122.039 197.226 126.727C191.332 133.904 185.029 140.782 178.344 147.332C178.136 147.506 177.989 147.735 177.922 147.988C177.855 148.241 177.871 148.508 177.968 148.752C178.419 150.568 178.845 152.384 179.196 154.2C180.092 157.966 180.429 161.828 180.197 165.678C180.048 169.254 178.999 172.748 177.133 175.878C175.267 179.008 172.637 181.687 169.454 183.699V183.699Z" fill="white"/>
<path d="M125.755 166.703L109.979 155.271C109.979 155.271 116.765 135.83 126.582 113.2H129.712C129.93 113.172 130.139 113.104 130.329 113C130.518 112.896 130.683 112.758 130.814 112.594C133.318 109.195 135.672 105.609 138.327 102.35C142.025 97.444 146.004 92.7264 150.247 88.2174C154.67 84.0291 159.317 80.0505 164.17 76.2968C169.078 72.2585 174.357 68.628 179.947 65.4471C188.34 60.9626 197.333 57.526 206.692 55.2261C208.495 54.7139 210.323 54.2715 212.151 53.8059L215.907 53.4333H216.584C217.46 53.5299 218.289 53.8573 218.972 54.3771C219.655 54.8968 220.165 55.5872 220.44 56.3669C220.452 56.4675 220.452 56.569 220.44 56.6696C211.5 63.4216 146.916 113.037 125.755 166.703Z" fill="url(#paint3_linear_5:188)"/>
<path d="M143.861 123.374C145.855 122.398 147.645 121.097 149.145 119.532C152.225 123.328 153.302 128.17 155.38 132.501C155.771 133.566 156.527 134.483 157.534 135.109C158.436 135.459 159.415 135.603 160.389 135.528H166.174C168.229 135.536 170.262 135.131 172.134 134.34C173.16 133.875 174.162 132.943 173.862 132.012C173.561 131.081 172.109 130.662 170.932 130.662C169.451 130.749 167.964 130.624 166.524 130.289C164.71 129.559 163.267 128.208 162.492 126.517C161.69 124.943 161.036 123.307 160.539 121.628C159.51 118.775 158.237 116.004 156.733 113.339C155.881 111.68 154.719 110.175 153.302 108.892C152.593 108.257 151.752 107.764 150.83 107.444C149.908 107.124 148.926 106.983 147.943 107.03C144.387 107.379 142.083 110.732 138.777 111.989C137.202 112.349 135.668 112.848 134.195 113.479C133.261 114.112 132.463 114.902 131.841 115.807C129.902 118.337 128.484 121.179 127.659 124.189C132.999 125.662 138.723 125.374 143.861 123.374Z" fill="url(#paint4_linear_5:188)"/>
<path d="M149.195 105.074C149.195 105.074 154.203 104.655 156.056 106.355C158.943 109.463 160.949 113.192 161.891 117.204C162.342 118.741 162.893 120.231 163.269 121.861C163.505 123.302 163.96 124.706 164.621 126.028C165.028 126.767 165.715 127.34 166.549 127.635C167.206 127.775 167.881 127.822 168.553 127.774C169.391 127.767 170.228 127.822 171.057 127.937C171.217 127.949 171.372 127.997 171.508 128.077C171.602 128.193 171.662 128.329 171.683 128.473C171.732 128.875 171.668 129.281 171.496 129.653C171.325 130.024 171.053 130.348 170.706 130.592C168.587 131.536 166.188 131.791 163.895 131.313C161.14 130.452 160.264 125.702 159.262 123.491C157.812 120.266 156.258 117.083 154.604 113.945C154.429 113.528 154.155 113.154 153.803 112.85C153.387 112.597 152.917 112.43 152.425 112.361L146.39 111.151C146.966 109.125 148.569 107.076 149.195 105.074Z" fill="#FFBBAB"/>
<path d="M176.14 120.417C184.314 120.417 190.94 114.257 190.94 106.657C190.94 99.0579 184.314 92.8973 176.14 92.8973C167.967 92.8973 161.34 99.0579 161.34 106.657C161.34 114.257 167.967 120.417 176.14 120.417Z" fill="#4FC3F7"/>
<path d="M176.14 115.807C181.576 115.807 185.982 111.711 185.982 106.657C185.982 101.604 181.576 97.5072 176.14 97.5072C170.705 97.5072 166.299 101.604 166.299 106.657C166.299 111.711 170.705 115.807 176.14 115.807Z" fill="#473F47"/>
<path d="M132.492 114.015L109.027 157.227L86.7646 166.54C86.7646 166.54 82.4323 169.217 82.858 163.723C83.2837 158.228 94.7781 127.355 98.2089 123.071C101.64 118.787 112.082 110.965 132.492 114.015V114.015ZM177.768 147.821L136.599 177.203L130.589 203.14C131.489 204.248 132.776 205.031 134.229 205.354C135.681 205.677 137.21 205.52 138.552 204.91C144.186 203.163 173.311 185.119 176.942 181.045C180.573 176.971 186.032 165.422 177.768 147.821V147.821ZM200.632 57.0422L220.465 71.2911C220.465 71.2911 221.492 56.53 220.465 53.4334C219.438 50.3368 200.632 57.0422 200.632 57.0422V57.0422Z" fill="#4FC3F7"/>
<path d="M110.004 155.294L106.072 161.79L132.492 180.649L138.577 175.806L110.004 155.294Z" fill="#4FC3F7"/>
<path opacity="0.36" d="M106.072 161.767C106.072 161.767 29.7935 237.295 79.8279 271.986C129.862 306.677 187.685 283.814 187.685 283.814C187.685 283.814 105.045 300.787 93.0001 257.691C85.9633 232.476 132.492 180.649 132.492 180.649L106.072 161.767Z" fill="url(#paint5_linear_5:188)"/>
<path d="M267.845 228.96L286.426 239.461H239.247L257.828 228.285V219.182L254.723 215.759V204.91C224.322 195.131 225.048 134.503 225.048 134.503H300.625V135.225C301.076 141.884 303.605 192.919 275.132 204.048C274.011 204.497 272.856 204.87 271.676 205.166V214.479L269.172 217.482L267.845 219.042V228.96Z" fill="#4FC3F7"/>
<path d="M228.253 187.052C227.336 187.081 226.422 186.942 225.562 186.642C224.703 186.342 223.915 185.888 223.245 185.306C222.436 184.484 221.892 183.468 221.675 182.373C221.458 181.278 221.577 180.148 222.018 179.113L225.474 180.044C225.253 180.521 225.179 181.045 225.258 181.558C225.338 182.072 225.568 182.555 225.924 182.954C226.456 183.339 227.083 183.594 227.748 183.696C228.413 183.798 229.094 183.743 229.731 183.536C230.197 183.452 230.634 183.265 231.005 182.989C231.376 182.713 231.669 182.358 231.859 181.953C231.559 180.975 226.851 177.297 223.195 174.2C213.178 166.051 200.657 155.923 204.739 147.774C205.302 146.493 206.187 145.355 207.32 144.456C208.452 143.556 209.8 142.922 211.25 142.606C219.263 140.883 229.881 148.892 230.332 149.241L228.053 151.825C225.373 149.777 217.26 144.841 212.051 145.865C211.136 146.074 210.289 146.486 209.582 147.066C208.876 147.646 208.331 148.376 207.994 149.195C205.039 155.062 217.385 165.05 225.524 171.662C232.786 177.553 235.966 180.253 235.34 182.745C235.017 183.739 234.415 184.636 233.597 185.344C232.779 186.052 231.773 186.545 230.682 186.773C229.888 186.958 229.072 187.051 228.253 187.052V187.052ZM299.774 187.052C298.97 187.054 298.169 186.953 297.395 186.749C296.3 186.525 295.289 186.034 294.466 185.326C293.643 184.618 293.037 183.719 292.712 182.721C292.086 180.23 295.216 177.529 302.529 171.639C310.692 165.027 323.038 155.038 320.058 149.171C319.734 148.413 319.22 147.739 318.557 147.204C317.895 146.669 317.104 146.29 316.252 146.098C310.567 144.934 301.226 150.754 298.196 153.083L296.043 150.475C296.568 150.103 308.564 141.162 317.178 142.862C318.572 143.154 319.87 143.753 320.964 144.607C322.057 145.462 322.915 146.548 323.464 147.774C327.571 155.923 315.05 166.051 305.008 174.2C301.276 177.227 296.644 180.975 296.343 182.186C296.543 182.768 297.57 183.303 298.472 183.536C299.103 183.75 299.782 183.808 300.444 183.706C301.107 183.604 301.73 183.345 302.253 182.954C302.584 182.546 302.789 182.061 302.847 181.553C302.904 181.044 302.811 180.531 302.579 180.067L306.059 179.136C306.5 180.173 306.616 181.305 306.395 182.4C306.173 183.496 305.623 184.511 304.807 185.329C304.133 185.911 303.34 186.364 302.476 186.659C301.612 186.955 300.694 187.088 299.774 187.052Z" fill="#4FC3F7"/>
<path opacity="0.28" d="M275.182 204.071C274.061 204.52 272.906 204.894 271.727 205.189V205.422H254.723V204.91C224.322 195.131 225.048 134.503 225.048 134.503H243.579C243.579 134.503 235.365 174.666 262.987 198.996C268.872 204.211 271 202.907 275.182 204.071V204.071Z" fill="white"/>
<path d="M285.299 205.398C284.154 205.555 282.989 205.555 281.844 205.398H285.299Z" fill="#4FC3F7"/>
<path opacity="0.28" d="M260.282 205.422V215.55L262.987 218.926V228.308L255.675 239.507H241.601L259.832 228.937V219.135L256.225 215.037V204.84L260.282 205.422Z" fill="white"/>
<path d="M254.723 205.445V204.933C224.322 195.154 225.048 134.526 225.048 134.526H230.432C230.432 134.526 227.126 187.913 256.225 204.84L257.227 205.445H254.723Z" fill="url(#paint6_linear_5:188)"/>
<path d="M271.727 205.189V214.502L269.222 217.505C263.913 215.806 263.087 212.174 271.727 205.189Z" fill="#4FC3F7"/>
<path d="M275.182 204.071C274.061 204.52 272.906 204.894 271.727 205.189C299.874 182.488 285.299 134.526 285.299 134.526L300.675 135.248C301.051 141.907 303.555 192.942 275.182 204.071V204.071Z" fill="url(#paint7_linear_5:188)"/>
<path d="M135.171 73.1071L136.924 69.7777C138.554 66.486 140.472 63.3245 142.659 60.325C147.192 54.5276 149.545 47.5196 153.452 41.3264C153.708 40.99 153.864 40.5963 153.903 40.1856C153.903 39.2776 152.751 38.7654 151.774 38.5325C150.492 38.1353 149.122 38.0472 147.793 38.2764C147.13 38.3996 146.52 38.6981 146.036 39.1359C145.552 39.5737 145.214 40.1323 145.063 40.7444C145.046 41.4543 145.105 42.1639 145.238 42.8631C145.161 44.8449 144.426 46.756 143.135 48.3345L133.268 63.1887C131.909 64.8527 131.045 66.8201 130.764 68.893C130.821 69.9737 131.301 70.9978 132.112 71.7736C132.923 72.5493 134.011 73.0234 135.171 73.1071V73.1071Z" fill="#FFBBAB"/>
<path d="M135.171 73.1071C135.971 71.9741 136.267 70.5972 135.998 69.2655C135.71 67.5139 135.71 65.7319 135.998 63.9804C136.594 62.2975 136.697 60.4975 136.298 58.7651C136.298 58.7651 136.298 58.6021 136.148 58.5555C136.088 58.5204 136.018 58.5017 135.948 58.5017C135.877 58.5017 135.807 58.5204 135.747 58.5555C135.136 58.8972 134.682 59.4358 134.47 60.0689C133.418 62.3971 130.213 66.3319 130.664 68.8697C130.718 69.9695 131.208 71.0116 132.041 71.7943C132.874 72.5771 133.989 73.0449 135.171 73.1071V73.1071Z" fill="url(#paint8_linear_5:188)"/>
<path d="M126.982 74.6204L132.141 68.5437L138.276 73.759L132.492 78.6017L126.982 74.6204Z" fill="#4FC3F7"/>
<path d="M126.982 74.6204L132.141 68.5437L138.276 73.759L132.492 78.6017L126.982 74.6204Z" fill="url(#paint9_linear_5:188)"/>
<path d="M140.18 82.1174L142.559 82.8857C143.385 83.1419 145.063 84.1663 145.839 83.4678C146.616 82.7693 145.839 80.6506 145.839 79.8823C145.444 77.1259 144.731 74.4172 143.711 71.8033C143.332 71.1787 143.098 70.487 143.025 69.7731C142.951 69.0592 143.04 68.339 143.285 67.659C143.5 67.3028 143.813 67.0055 144.191 66.7971C144.569 66.5886 144.999 66.4764 145.439 66.4716C145.872 66.4782 146.298 66.5835 146.677 66.7783C147.057 66.9731 147.38 67.2515 147.617 67.5891C147.957 68.336 148.2 69.1175 148.343 69.9174C148.61 70.4392 148.714 71.0198 148.644 71.5937C148.506 71.849 148.389 72.1136 148.293 72.3853C148.276 72.689 148.336 72.9921 148.469 73.2701L151.599 80.93C152.466 82.567 152.797 84.4048 152.551 86.2152C152.116 87.4056 151.261 88.4241 150.124 89.1048C148.987 89.7855 147.636 90.0882 146.29 89.9636C143.304 89.6882 140.43 88.763 137.901 87.2629C137.625 87.1232 137.3 86.8671 137.4 86.5877C137.476 86.4662 137.589 86.3689 137.726 86.3083C138.535 85.8734 139.216 85.2571 139.704 84.5155C139.976 84.1768 140.161 83.7842 140.244 83.3683C140.326 82.9523 140.304 82.5242 140.18 82.1174V82.1174ZM133.118 69.6613C133.058 69.9803 132.892 70.2736 132.642 70.4994C132.256 70.7242 131.818 70.8599 131.365 70.8952C130.898 70.9437 130.456 71.1131 130.088 71.3842C130.031 71.4805 130.001 71.5886 130.001 71.6985C130.001 71.8084 130.031 71.9165 130.088 72.0128L130.764 74.6903C130.838 74.8861 130.838 75.0998 130.764 75.2956C130.63 75.5272 130.406 75.7023 130.138 75.7846C129.136 76.2269 127.859 76.6227 126.982 75.9941C126.541 75.6246 126.235 75.1363 126.106 74.5972C124.816 71.6247 124.039 68.4818 123.802 65.2842C123.708 64.3211 123.838 63.3505 124.184 62.4385C124.53 61.5264 125.083 60.6944 125.805 59.999C127.213 58.9377 129.009 58.4282 130.814 58.5788C131.218 58.5971 131.611 58.7063 131.96 58.8968C132.309 59.0874 132.603 59.3537 132.817 59.6731C133.093 60.1387 132.817 60.6277 132.993 61.1399C133.071 61.8864 133.214 62.626 133.418 63.3517C133.521 63.7 133.646 64.0421 133.794 64.3761C133.962 64.6512 134.081 64.9501 134.145 65.2609C134.147 65.8329 134.01 66.398 133.744 66.9139C133.493 67.5462 133.317 68.202 133.218 68.8697C133.268 69.1956 133.268 69.4284 133.118 69.6613V69.6613Z" fill="#FFBBAB"/>
<path d="M133.894 58.2762C133.794 58.869 133.538 59.4298 133.149 59.9089C132.76 60.3881 132.251 60.7708 131.665 61.0235C128.961 62.2109 125.104 62.0479 126.131 65.68C126.722 67.098 126.953 68.6237 126.805 70.1382C126.657 71.6526 126.135 73.1149 125.28 74.4109C124.654 75.2724 123.877 76.0174 123.326 76.9255C122.425 78.3224 122.149 80.022 121.173 81.3724C119.219 84.0499 115.263 84.6087 111.807 84.6087C110.485 84.5822 109.171 84.8122 107.95 85.2839C105.121 86.5877 103.843 90.4526 100.713 90.5923C97.5828 90.732 96.506 86.9369 94.7531 85.0743C93.5556 83.9534 92.75 82.5224 92.4417 80.9688C92.1334 79.4151 92.3368 77.8111 93.0251 76.3667C96.2556 70.2201 106.798 70.5926 110.78 64.7254C113.234 61.3262 113.234 56.6697 117.491 54.4811C119.831 53.4686 122.4 52.999 124.978 53.1126C127.556 53.2261 130.065 53.9194 132.291 55.133C132.879 55.4349 133.35 55.9007 133.637 56.4646C133.925 57.0286 134.015 57.6622 133.894 58.2762V58.2762Z" fill="#473F47"/>
<path d="M138.527 101.954C138.831 102.184 139.179 102.358 139.554 102.466C140.865 102.766 142.226 102.821 143.56 102.629C145.487 102.536 147.418 102.536 149.345 102.629C149.813 102.607 150.277 102.721 150.672 102.955C151.323 103.468 151.123 104.422 150.848 105.167C149.647 108.556 148.251 111.883 146.666 115.132C146.118 116.552 145.166 117.808 143.911 118.764C142.92 119.336 141.811 119.709 140.655 119.858C138.333 120.301 135.983 120.604 133.619 120.766C131.317 121.079 128.967 120.788 126.832 119.928C124.552 118.65 122.872 116.623 122.124 114.247C121.165 111.958 120.931 109.462 121.448 107.053C122.074 104.492 123.326 103.747 122.55 101C121.522 97.5922 120.802 94.111 120.396 90.5923C120.071 87.3984 120.394 84.1761 121.348 81.093C121.727 79.6654 122.371 78.3102 123.251 77.0884C124.15 75.8887 125.469 75.0164 126.982 74.6205C127.733 74.4409 128.521 74.4475 129.268 74.6395C130.015 74.8315 130.695 75.2022 131.24 75.7148C134.17 78.6716 138.176 78.8346 141.507 81.3724C141.702 81.4886 141.851 81.6601 141.933 81.8613C142.019 82.0711 142.019 82.3034 141.933 82.5132L139.754 87.3793C139.539 87.9031 139.262 88.4029 138.928 88.8694C138.627 89.2652 138.251 89.5911 137.976 89.9869C137.22 91.1767 136.838 92.5401 136.874 93.9217C136.849 96.2499 136.248 100.301 138.527 101.954Z" fill="#4FC3F7"/>
<path d="M135.347 105.074C134.951 105.254 134.511 105.334 134.071 105.305C133.631 105.277 133.207 105.141 132.842 104.911C131.089 103.7 132.442 102.862 132.842 101.605C133.379 99.8661 133.524 98.0431 133.268 96.2499C132.993 92.7808 132.692 89.2651 132.417 85.8193C132.567 86.6808 136.974 87.8915 138.702 88.9858C138.402 89.3816 138.026 89.7075 137.751 90.1033C135.797 92.7575 136.824 98.0659 136.874 101.069C136.999 102.513 136.799 104.329 135.347 105.074V105.074Z" fill="url(#paint10_linear_5:188)"/>
<path d="M155.656 60.2784C156.402 62.9347 156.402 65.7244 155.656 68.3807C155.522 68.5062 155.359 68.6018 155.18 68.6601C155.042 68.7045 154.892 68.7045 154.754 68.6601C153.627 68.4506 147.242 64.5624 139.729 67.0071C139.349 67.1393 138.942 67.1917 138.537 67.1607C138.133 67.1296 137.74 67.0158 137.389 66.8273C137.037 66.6389 136.734 66.3805 136.503 66.0707C136.271 65.7609 136.115 65.4072 136.048 65.0351C135.98 64.6629 136.002 64.2815 136.111 63.918C136.221 63.5546 136.415 63.2181 136.681 62.9326C136.946 62.6472 137.276 62.4199 137.648 62.2669C138.019 62.114 138.422 62.0392 138.827 62.0479C138.827 62.0479 148.669 58.9979 150.798 53.573C151.073 52.7581 151.624 52.4555 152.25 52.5486C152.644 52.6213 153.013 52.781 153.327 53.0143C154.582 55.2799 155.372 57.7434 155.656 60.2784Z" fill="#4FC3F7"/>
<path d="M155.656 60.2784C156.402 62.9347 156.402 65.7244 155.656 68.3807C155.62 68.4506 155.568 68.5121 155.503 68.5605C155.437 68.6089 155.361 68.643 155.28 68.6601C154.278 68.6601 152.776 65.1677 152.075 60.8604C151.374 56.5532 151.424 53.1772 152.25 52.5486H152.45C152.726 52.5486 153.001 52.7116 153.327 53.1074C154.571 55.3443 155.36 57.7753 155.656 60.2784V60.2784Z" fill="url(#paint11_linear_5:188)"/>
<path d="M170.255 127.402C169.915 127.494 169.623 127.699 169.434 127.978C169.245 128.257 169.172 128.59 169.229 128.915C169.229 129.288 169.704 129.66 169.529 130.01C169.468 130.105 169.385 130.186 169.285 130.247C169.185 130.307 169.072 130.346 168.953 130.359C166.604 131.027 164.073 130.87 161.841 129.916C161.787 130.1 161.786 130.294 161.838 130.478C161.891 130.663 161.996 130.83 162.142 130.964C162.485 131.555 162.996 132.046 163.619 132.384C164.035 132.533 164.476 132.612 164.921 132.617C168.417 132.574 171.808 131.507 174.613 129.567C174.88 129.411 175.117 129.215 175.314 128.985C175.398 128.859 175.443 128.714 175.443 128.566C175.443 128.418 175.398 128.273 175.314 128.147C175.164 127.798 174.713 127.681 174.312 127.612C173.615 127.515 172.913 127.453 172.209 127.425C171.566 127.295 170.901 127.287 170.255 127.402V127.402Z" fill="#4FC3F7"/>
</g>
<rect x="4.5" y="0.5" width="414" height="303" stroke="black" shape-rendering="crispEdges"/>
</g>
<defs>
<filter id="filter0_d_5:188" x="0" y="0" width="423" height="312" filterUnits="userSpaceOnUse" color-interpolation-filters="sRGB">
<feFlood flood-opacity="0" result="BackgroundImageFix"/>
<feColorMatrix in="SourceAlpha" type="matrix" values="0 0 0 0 0 0 0 0 0 0 0 0 0 0 0 0 0 0 127 0" result="hardAlpha"/>
<feOffset dy="4"/>
<feGaussianBlur stdDeviation="2"/>
<feComposite in2="hardAlpha" operator="out"/>
<feColorMatrix type="matrix" values="0 0 0 0 0 0 0 0 0 0 0 0 0 0 0 0 0 0 0.25 0"/>
<feBlend mode="normal" in2="BackgroundImageFix" result="effect1_dropShadow_5:188"/>
<feBlend mode="normal" in="SourceGraphic" in2="effect1_dropShadow_5:188" result="shape"/>
</filter>
<linearGradient id="paint0_linear_5:188" x1="261.96" y1="162.815" x2="268.417" y2="79.4785" gradientUnits="userSpaceOnUse">
<stop offset="0.01"/>
<stop offset="0.08" stop-opacity="0.69"/>
<stop offset="0.21" stop-opacity="0.32"/>
<stop offset="1" stop-opacity="0"/>
</linearGradient>
<linearGradient id="paint1_linear_5:188" x1="1475.58" y1="1757.04" x2="1864.78" y2="1127.74" gradientUnits="userSpaceOnUse">
<stop offset="0.01"/>
<stop offset="0.08" stop-opacity="0.69"/>
<stop offset="0.21" stop-opacity="0.32"/>
<stop offset="1" stop-opacity="0"/>
</linearGradient>
<linearGradient id="paint2_linear_5:188" x1="-2853.8" y1="14768.1" x2="-3953.16" y2="13869.3" gradientUnits="userSpaceOnUse">
<stop offset="0.01"/>
<stop offset="0.08" stop-opacity="0.69"/>
<stop offset="0.21" stop-opacity="0.32"/>
<stop offset="1" stop-opacity="0"/>
</linearGradient>
<linearGradient id="paint3_linear_5:188" x1="56.1129" y1="88.8461" x2="289.815" y2="138.835" gradientUnits="userSpaceOnUse">
<stop offset="0.01"/>
<stop offset="0.13" stop-opacity="0.69"/>
<stop offset="0.25" stop-opacity="0.32"/>
<stop offset="1" stop-opacity="0"/>
</linearGradient>
<linearGradient id="paint4_linear_5:188" x1="3387.86" y1="1518.22" x2="3286.65" y2="2853.29" gradientUnits="userSpaceOnUse">
<stop offset="0.01"/>
<stop offset="0.13" stop-opacity="0.69"/>
<stop offset="0.25" stop-opacity="0.32"/>
<stop offset="1" stop-opacity="0"/>
</linearGradient>
<linearGradient id="paint5_linear_5:188" x1="3239.43" y1="8513.19" x2="14294.6" y2="29843.8" gradientUnits="userSpaceOnUse">
<stop offset="0.01"/>
<stop offset="0.08" stop-opacity="0.69"/>
<stop offset="0.21" stop-opacity="0.32"/>
<stop offset="1" stop-opacity="0"/>
</linearGradient>
<linearGradient id="paint6_linear_5:188" x1="2500.87" y1="6779.6" x2="4662.42" y2="6602.24" gradientUnits="userSpaceOnUse">
<stop offset="0.01"/>
<stop offset="0.13" stop-opacity="0.69"/>
<stop offset="0.25" stop-opacity="0.32"/>
<stop offset="1" stop-opacity="0"/>
</linearGradient>
<linearGradient id="paint7_linear_5:188" x1="4733.42" y1="6641.83" x2="2395.16" y2="6506.77" gradientUnits="userSpaceOnUse">
<stop offset="0.01"/>
<stop offset="0.13" stop-opacity="0.69"/>
<stop offset="0.25" stop-opacity="0.32"/>
<stop offset="1" stop-opacity="0"/>
</linearGradient>
<linearGradient id="paint8_linear_5:188" x1="1180.64" y1="-1891.87" x2="1224.9" y2="-1905.96" gradientUnits="userSpaceOnUse">
<stop offset="0.01"/>
<stop offset="0.13" stop-opacity="0.69"/>
<stop offset="0.25" stop-opacity="0.32"/>
<stop offset="1" stop-opacity="0"/>
</linearGradient>
<linearGradient id="paint9_linear_5:188" x1="3170.37" y1="-1500.25" x2="3322.34" y2="-1552.09" gradientUnits="userSpaceOnUse">
<stop offset="0.01"/>
<stop offset="0.13" stop-opacity="0.69"/>
<stop offset="0.25" stop-opacity="0.32"/>
<stop offset="1" stop-opacity="0"/>
</linearGradient>
<linearGradient id="paint10_linear_5:188" x1="1339.8" y1="-2449.27" x2="1470.38" y2="-2462.68" gradientUnits="userSpaceOnUse">
<stop offset="0.01"/>
<stop offset="0.13" stop-opacity="0.69"/>
<stop offset="0.25" stop-opacity="0.32"/>
<stop offset="1" stop-opacity="0"/>
</linearGradient>
<linearGradient id="paint11_linear_5:188" x1="719.528" y1="-2115.87" x2="777.448" y2="-2121.12" gradientUnits="userSpaceOnUse">
<stop offset="0.01"/>
<stop offset="0.13" stop-opacity="0.69"/>
<stop offset="0.25" stop-opacity="0.32"/>
<stop offset="1" stop-opacity="0"/>
</linearGradient>
<clipPath id="clip0_5:188">
<rect x="4" width="415" height="304" fill="white"/>
</clipPath>
</defs>
</svg>
