<svg width="44" height="44" viewBox="0 0 44 44" fill="none" xmlns="http://www.w3.org/2000/svg">
<path d="M14.6667 22H7.33333C6.32081 22 5.5 22.8208 5.5 23.8333V34.8333C5.5 35.8459 6.32081 36.6667 7.33333 36.6667H14.6667C15.6792 36.6667 16.5 35.8459 16.5 34.8333V23.8333C16.5 22.8208 15.6792 22 14.6667 22Z" stroke="#03A9F4" stroke-width="2.75" stroke-linecap="round" stroke-linejoin="round"/>
<path d="M25.6667 14.6667H18.3333C17.3208 14.6667 16.5 15.4875 16.5 16.5V34.8333C16.5 35.8458 17.3208 36.6667 18.3333 36.6667H25.6667C26.6792 36.6667 27.5 35.8458 27.5 34.8333V16.5C27.5 15.4875 26.6792 14.6667 25.6667 14.6667Z" stroke="#03A9F4" stroke-width="2.75" stroke-linecap="round" stroke-linejoin="round"/>
<path d="M36.6667 7.33334H29.3333C28.3208 7.33334 27.5 8.15415 27.5 9.16668V34.8333C27.5 35.8459 28.3208 36.6667 29.3333 36.6667H36.6667C37.6792 36.6667 38.5 35.8459 38.5 34.8333V9.16668C38.5 8.15415 37.6792 7.33334 36.6667 7.33334Z" stroke="#03A9F4" stroke-width="2.75" stroke-linecap="round" stroke-linejoin="round"/>
<path d="M7.33331 36.6667H33" stroke="#03A9F4" stroke-width="2.75" stroke-linecap="round" stroke-linejoin="round"/>
</svg>
